<?xml version="1.0" encoding="utf-8"?>
<!-- Generator: Adobe Illustrator 27.8.1, SVG Export Plug-In . SVG Version: 6.00 Build 0)  -->
<svg version="1.1" xmlns="http://www.w3.org/2000/svg" xmlns:xlink="http://www.w3.org/1999/xlink" x="0px" y="0px"
	 viewBox="0 0 512 512" style="enable-background:new 0 0 512 512;" xml:space="preserve">
<style type="text/css">
	.st0{fill:#E9577C;}
	.st1{fill:#C8EAFB;}
	.st2{fill:#EE809B;}
	.st3{fill:#F3ADBE;}
	.st4{fill:#DAF3FD;}
	.st5{fill:#B8EAFC;}
	.st6{fill:#DF5D98;}
	.st7{fill:#E25C90;}
	.st8{fill:#DD5F9F;}
	.st9{fill:#82C2F3;}
	.st10{fill:#7EC7F5;}
	.st11{fill:#E15C93;}
	.st12{fill:#7ACCF7;}
	.st13{fill:#BC7DDA;}
	.st14{fill:#C374D7;}
	.st15{fill:#DC60A2;}
	.st16{fill:#C078D8;}
	.st17{fill:#B980DB;}
	.st18{fill:#C76FD5;}
	.st19{fill:#E05D96;}
	.st20{fill:#6BDEFD;}
	.st21{fill:#CC6AD1;}
	.st22{fill:#E45A89;}
	.st23{fill:#D862AC;}
	.st24{fill:#C96DD4;}
	.st25{fill:#CE69CA;}
	.st26{fill:#DD5F9D;}
	.st27{fill:#B684DD;}
	.st28{fill:#E65983;}
	.st29{fill:#DB60A5;}
	.st30{fill:#6ADBFD;}
	.st31{fill:#B684DC;}
	.st32{fill:#6EDAFC;}
	.st33{fill:#72D5FA;}
	.st34{fill:#D664B3;}
	.st35{fill:#C276D7;}
	.st36{fill:#87BDF1;}
	.st37{fill:#AF8CDF;}
	.st38{fill:#C671D5;}
	.st39{fill:#B387DE;}
	.st40{fill:#75D1F9;}
	.st41{fill:#7DC8F6;}
	.st42{fill:#BE7AD9;}
	.st43{fill:#80C4F4;}
	.st44{fill:#89B9F0;}
	.st45{fill:#AC90E1;}
	.st46{fill:#8CB6EF;}
	.st47{fill:#B981DB;}
	.st48{fill:#A994E2;}
	.st49{fill:#90B2ED;}
	.st50{fill:#6BD6FC;}
	.st51{fill:#BB7DDA;}
	.st52{fill:#93ADEC;}
	.st53{fill:#D167C3;}
	.st54{fill:#A598E4;}
	.st55{fill:#A29CE5;}
	.st56{fill:#76D0F8;}
	.st57{fill:#73D3FA;}
	.st58{fill:#71D7FB;}
</style>
<g id="Layer_2">
</g>
<g id="Layer_1">
	<g>
		<path class="st0" d="M165.4,18.2c2.2,0.8,4.5,0.6,6.7,1c9.8,1.7,19,5.1,27.3,10.8c-0.1,1-0.9,1.1-1.5,1.2
			c-0.8,0.1-1.5,0.1-2.3,0.1c-7.9,0-15.7-0.1-23.6,0c-15.4,0.2-30.9-0.5-46.3-0.4c-1.1,0-2.5,0.5-2.8-1.3c7.4-5.1,15.5-8.2,24.3-10
			c2.6-0.5,5.3-1,8-1.1c0.3,0,0.6,0,0.7-0.4c0.1,0,0.2,0,0.4,0c1,0.4,2,0.1,2.9,0.2c1,0,2,0,3,0c1-0.1,2,0.2,3-0.2
			C165.1,18.2,165.3,18.2,165.4,18.2z"/>
		<path class="st1" d="M494.3,426.5c-0.1,0-0.2,0-0.3,0c-0.9-1.6-0.9-3.1,0-4.7c0.1,0,0.2,0,0.3,0
			C494.3,423.4,494.3,425,494.3,426.5z"/>
		<path class="st2" d="M162.2,18.5c-1.1,0-2.2,0-3.3,0c-0.1-0.1-0.1-0.2-0.1-0.2c0-0.1,0.1-0.1,0.1-0.1c1.1,0,2.1,0,3.2,0
			c0.1,0.1,0.2,0.1,0.1,0.2C162.2,18.4,162.2,18.5,162.2,18.5z"/>
		<path class="st3" d="M162.2,18.5c0-0.1,0-0.2,0-0.3c1,0,1.9,0,2.9,0C164.1,18.9,163.1,18.3,162.2,18.5z"/>
		<path class="st3" d="M158.9,18.2c0,0.1,0,0.2,0,0.3c-0.9-0.1-2,0.4-2.8-0.3C157,18.2,158,18.2,158.9,18.2z"/>
		<path class="st4" d="M156.4,496c0-0.1,0-0.2,0-0.3c0.9-0.8,1.8-0.6,2.7-0.2c0.2,0.1,0.3,0.3,0.1,0.6
			C158.3,496,157.4,496,156.4,496z"/>
		<path class="st5" d="M159.3,496c0-0.1,0-0.2,0-0.3c0.9-0.7,1.8-0.6,2.7-0.2c0.2,0.1,0.3,0.3,0.1,0.6
			C161.2,496,160.2,496,159.3,496z"/>
		<path class="st4" d="M162.2,496c0-0.1,0-0.2,0-0.3c1-0.7,1.9-0.8,2.9,0c0,0.1,0,0.2,0,0.3C164.1,496,163.1,496,162.2,496z"/>
		<path class="st6" d="M492.9,83.3c1.7,5.4,1.5,10.7-0.8,15.8c-0.4,0.3-0.9,0.3-1.4,0.3c-28.1-0.1-56.2,0.3-84.3-0.1
			c-34.7-0.5-69.4,0.2-104.1-0.3c-34.2-0.5-68.5,0-102.7-0.3c-4.9,0-9.8-0.3-14.7-0.3c-0.5,0-1.1-0.1-1.6-0.3
			c-0.8-0.5-0.7-1.4-0.5-2.1c1-3.8,1-7.5,0.1-11.3c-0.1-0.6-0.4-1.3,0.3-1.8c0.8-0.4,1.7-0.3,2.6-0.3c7.7,0,15.4-0.1,23.1,0
			c34.2,0.8,68.5-0.1,102.7,0.4c34.7,0.5,69.4-0.2,104.1,0.4c24.2,0.4,48.3,0.1,72.5,0.3C490,83.5,491.4,83.5,492.9,83.3z"/>
		<path class="st7" d="M225.6,61.5c1.8,3.8,5,4.7,8.9,4.7c76.9-0.4,153.7-0.1,230.6-0.2c3.6,0,7.3,0.1,10.8,1
			c4.5,1.2,8.5,3.4,11.7,6.7c-0.7,1.2-1.8,1-2.9,1c-6.4,0-12.8,0-19.1,0c-4.4,0-8.7,0.1-13.1,0c-35.7-0.8-71.4,0.1-107.1-0.4
			c-34.2-0.5-68.5,0.2-102.7-0.4c-20.2-0.3-40.4-0.1-60.6-0.3c-1.3,0-2.6,0-3.9,0c-0.9,0.1-1.5-0.4-2.2-1
			c-10.5-9.2-25.4-7.7-33.9,3.3c-0.6,0.8-1.2,1.7-2.3,1.8c-1.1,0.1-2.1,0.1-3.2,0.1c-20.7,0-41.5,0.3-62.2-0.1
			c-16.6-0.3-33.1-0.1-49.7-0.3c-1,0-2.2,0.2-2.9-0.9c2.9-4.8,7.3-7.5,12.4-9.3c3.1-1.1,6.4-1.3,9.7-1.3c15.1,0,30.2,0,45.2,0
			c1.7,0,2.8-0.4,3.6-1.9c0.7-1.2,1.6-2.2,2.4-3.3c0.7-0.3,1.4-0.2,2.1-0.2c11.4-0.2,22.9,0.4,34.3,0.4c27.6-0.1,55.2-0.1,82.8,0
			C218.1,61,221.9,61.2,225.6,61.5z"/>
		<path class="st8" d="M183.2,97.7c10.5-0.1,21,0.5,31.4,0.4c27.3-0.1,54.6-0.3,81.9,0c34.9,0.5,69.9-0.2,104.8,0.4
			c29.3,0.5,58.7,0.1,88,0.3c1,0,1.9,0.1,2.8,0.4c-1.8,4.9-5.1,8.5-9.5,11.1c-0.9,0.2-1.8,0.2-2.7,0.2c-27.7-0.1-55.4-0.5-83.2-0.4
			c-14.3,0.1-28.5,0.2-42.8,0c-35.2-0.7-70.5,0.1-105.7-0.4c-22.9-0.4-45.8-0.1-68.7-0.3c-1.1,0-2.3,0.2-3.3-0.6
			c-0.6-0.6-0.4-1.2,0.1-1.7c2.7-2.6,4.7-5.7,6.2-9.1C182.7,97.8,182.9,97.7,183.2,97.7z"/>
		<path class="st9" d="M226.2,397.1c1.7,2.7,4.4,3.5,7.4,3.5c16.8,0,33.5,0.1,50.3,0c61.3-0.5,122.6-0.1,183.9-0.2
			c6.5,0,12.5,1.6,17.7,5.7c0.8,0.6,1.6,1.3,2.2,2.1c-0.7,1-1.7,1-2.7,0.9c-4.1-0.1-8.1,0.3-12.2-0.3c-0.9-0.1-1.8,0-2.7,0
			c-32,0-64.1,0.3-96.1-0.1c-34.6-0.4-69.3,0.2-103.9-0.3c-30.2-0.5-60.3-0.1-90.5-0.3c-0.4,0-0.7,0-1.1,0c-1.4,0.1-2.2-1-3.2-1.8
			c-2.8-2.2-5.9-3.9-9.4-4.6c-5.8-1.2-11.4-0.7-16.5,2.4c-0.8,0.5-1.6,1.1-2.7,0.7c-1.4-0.3-2.8-0.3-4.3-0.3
			c-23.3,0-46.6,0.2-69.9-0.1c-13.1-0.2-26.2-0.1-39.3-0.3c-0.9,0-2,0.3-2.4-0.9c2.3-1.5,4.9-2,7.6-2.4c2.1-0.3,4.3-0.4,6.4-0.4
			c15.3,0,30.5-0.1,45.8,0c2.1,0,3.4-0.3,3.9-2.5c0.1-0.4,0.3-0.8,0.5-1.1c0.8-0.6,1.7-0.6,2.6-0.6c30.1,0,60.2-0.2,90.3,0.1
			c11.9,0.1,23.7,0.1,35.6,0.3C224.3,396.6,225.4,396.4,226.2,397.1z"/>
		<path class="st10" d="M177.9,407.9c0.5-0.7,1.2-0.4,1.8-0.4c28.5,0,57-0.3,85.5,0.1c34.4,0.5,68.8-0.2,103.2,0.3
			c34.6,0.5,69.1,0,103.7,0.4c4.2,0,8.3,0.2,12.5,0.3c1,0,2-0.1,3-0.4c3.2,2.9,5,6.6,6,10.7c-0.5,0.3-1.2,0.2-1.7,0.3
			c-0.7,0-1.4,0-2.1,0c-47.5-0.4-94.9-0.1-142.4-0.5c-34.3-0.3-68.7,0.2-103-0.3c-20-0.3-39.9-0.1-59.9-0.3c-0.7,0-1.2-0.3-1.5-1
			c-1.1-2.9-2.5-5.7-4.5-8.1C178,408.8,177.8,408.4,177.9,407.9z"/>
		<path class="st11" d="M177.6,73.3c0.6-0.4,1.4-0.4,2.1-0.4c19.2,0,38.4-0.3,57.6,0.1c34.4,0.6,68.9-0.2,103.3,0.4
			c34.5,0.5,69-0.1,103.5,0.4c13.7,0.2,27.4,0,41.1,0.3c0.8,0,1.7,0.1,2.4-0.4c2.8,2.6,4.3,6,5.3,9.6c-0.2,1.1-1,0.8-1.7,0.8
			c-4.7,0-9.3,0-14,0c-18.2,0-36.4,0.3-54.6-0.1c-35.2-0.6-70.5,0.2-105.7-0.4c-34.1-0.5-68.2,0.1-102.3-0.4
			c-10.5-0.1-21-0.1-31.4-0.3c-0.6-0.1-0.8-0.7-1-1.2c-0.9-2.7-2.4-5-4.2-7.1C177.8,74.3,177.3,74,177.6,73.3z"/>
		<path class="st12" d="M183.6,418c0.5-0.7,1.2-0.4,1.8-0.4c17.9,0,35.8-0.3,53.7,0c34.3,0.6,68.7-0.2,103,0.4
			c34.6,0.5,69.3-0.1,103.9,0.4c15.2,0.2,30.4,0,45.6,0.3c0.7,0,1.3-0.1,1.9,0.3c0.2,1,0.3,1.9,0.5,2.9c0,1.6,0,3.1,0,4.7
			c-0.1,0.6,0.1,1.3-0.4,1.8c-1.7-0.2-3.3-0.2-5-0.2c-7,0-14.1,0.1-21.1,0c-39.3-0.6-78.6,0-117.9-0.4c-34.2-0.4-68.5,0.2-102.7-0.4
			c-20-0.3-40-0.1-59.9-0.3c-0.8,0-1.7,0.1-2.5-0.3c0,0-0.1-0.1-0.1-0.1C183.6,423.8,183.2,420.9,183.6,418z"/>
		<path class="st13" d="M20,267.1c-1.4-2.8-2.2-5.8-2.1-9c0.8-0.7,1.7-0.6,2.6-0.5c1.9,0.3,3.8,0.3,5.7,0.3c31.5,0,63-0.3,94.5,0.1
			c34.8,0.4,69.7-0.2,104.5,0.3c32.4,0.5,64.9,0.1,97.3,0.3c0.7,0,1.3,0,2,0c1.5,0.1,2.2-0.5,2.2-2.1c0-0.6,0.1-1.2,0.6-1.6
			c1.2,0.2,0.8,1.1,0.8,1.8c-0.1,3.3,0.4,6.5,1.8,9.5c0.3,0.6,0.4,1.3-0.1,1.8c-0.8,0.8-1.9,0.6-2.9,0.6c-21.9,0-43.9,0.3-65.8-0.1
			c-32.2-0.5-64.4,0.1-96.6-0.3c-36.7-0.5-73.4,0-110.2-0.4c-10.5-0.1-21.1-0.1-31.6-0.3C21.6,267.7,20.7,267.7,20,267.1z"/>
		<path class="st14" d="M19,249.5c0.9-3.3,2.6-6.2,5-8.6c0.8-0.2,1.5-0.2,2.3-0.2c0.2,0,0.4,0,0.5,0c46.3,0.5,92.5,0,138.8,0.5
			c34.4,0.3,68.8-0.2,103.2,0.3c19.9,0.3,39.8,0.1,59.7,0.3c1.1,0,2.2,0,3.2,0.5c0.4,0.2,0.8,0.5,0.5,1c-1.6,2.7-2.5,5.7-4.3,8.3
			c-0.9,0.5-2,0.4-3,0.4c-6.6,0-13.1,0.1-19.7,0c-34.2-0.8-68.5,0.1-102.7-0.4c-34.7-0.5-69.4,0.2-104.1-0.4
			c-25.3-0.4-50.7-0.1-76-0.3c-0.7,0-1.4,0-2.1-0.1C19.6,250.6,19,250.4,19,249.5z"/>
		<path class="st15" d="M176.1,108.1c0.5,1.1,1.5,0.7,2.4,0.7c21.6,0,43.3-0.3,64.9,0.1c34.6,0.6,69.1-0.2,103.7,0.4
			c34.5,0.5,68.9-0.1,103.4,0.4c10.1,0.1,20.1,0.1,30.2,0.3c0.7,0,1.3,0.1,1.9,0.4c-3,2.2-6.5,3.1-10.2,3.5
			c-0.9,0.1-1.8,0.1-2.7,0.1c-73.2,0-146.4,0-219.6,0c-5.7,0-11.3-0.1-17,0c-2.5,0-5,0.5-6.6,2.8c-0.4,0.3-0.9,0.3-1.4,0.3
			c-25.9-0.2-51.8,0.2-77.7-0.2c-16.4-0.3-32.8-0.1-49.1-0.3c-1.3,0-2.6,0.4-3.9-0.2c-0.5-2.1-1.9-2.6-4-2.5c-16,0.1-32,0.1-48,0
			c-6.7,0-12.7-2.1-17.6-6.8c0.9-1,2-0.9,3.1-0.9c12.2,0,24.3-0.3,36.5,0.1c16.6,0.5,33.1,0.1,49.7,0.3c9.7,0.1,19.3,0,29,0
			c1-0.2,1.7,0.5,2.3,1.1c2.5,2.3,5.4,4.1,8.7,5c7.1,1.8,13.8,0.7,19.8-3.5C174.6,108.6,175.2,107.9,176.1,108.1z"/>
		<path class="st16" d="M19,249.5c0.5,1.1,1.5,0.7,2.4,0.7c24,0,48.1-0.3,72.1,0.1c34.6,0.5,69.2-0.2,103.7,0.4
			c34.4,0.5,68.8-0.1,103.2,0.4c8.5,0.1,17,0.1,25.5,0.3c0.8,0,1.6,0.2,2.2-0.4c0.6,1.5,0.2,2.7-0.7,3.9c-0.6,0.9-0.3,2-0.3,3
			c0,1-0.4,1.4-1.4,1.3c-0.3,0-0.6,0-0.9,0c-31.6,0-63.2,0.3-94.8-0.1c-34.6-0.4-69.1,0.2-103.7-0.3c-34.4-0.5-68.8-0.1-103.2-0.3
			c-1.8,0-3.5-0.6-5.3-0.4C17.8,255.2,17.7,252.3,19,249.5z"/>
		<path class="st17" d="M20,267.1c10,0,19.9-0.2,29.9,0c33.9,0.7,67.8-0.1,101.7,0.4c35,0.5,70.1-0.2,105.1,0.4
			c23.5,0.4,47,0,70.4,0.3c0.9,0,1.8,0.1,2.6-0.4c0.8,0.1,1,0.7,1.3,1.3c0.9,1.5,1.8,3,3.1,4.3c0.6,0.5,1.1,1.2,0.1,1.9
			c-0.4,0.2-0.8,0.3-1.2,0.3c-5.4,0.1-10.7,0.2-16.1-0.1c-1.5-0.1-3.1-0.2-4.6-0.2c-31.4,0-62.8,0.3-94.1-0.1
			c-35.3-0.4-70.6,0.2-105.9-0.4c-28-0.4-55.9-0.1-83.9-0.3c-1.3,0-2.5,0.1-3.7-0.6C22.5,272.1,20.9,269.8,20,267.1z"/>
		<path class="st18" d="M332.2,242.7c-1.7-0.5-3.4-0.4-5.1-0.4c-17.1,0-34.1,0.3-51.2-0.1c-35.2-0.6-70.4,0.2-105.5-0.4
			c-34.1-0.5-68.2,0.1-102.3-0.4c-14.2-0.2-28.4-0.1-42.5-0.3c-0.5,0-1.1,0.1-1.5-0.4c2.7-3.1,6.1-5.1,10-6.3c1.2,0.5,2.5,0,3.7,0
			c14.1,0,28.2-0.2,42.2,0.1c34.2,0.7,68.3-0.1,102.5,0.4c34.8,0.5,69.5-0.1,104.3,0.4c16.3,0.2,32.6,0.1,48.8,0.3
			c1,0,1.9,0,2.8,0.4c0.6,0.3,0.9,0.9,0.2,1.3c-2.2,1.6-4.1,3.5-6.1,5.4C332.4,242.8,332.3,242.8,332.2,242.7z"/>
		<path class="st19" d="M21.8,76.5c0.6,0.4,1.4,0.4,2.1,0.4c34.3-0.2,68.6,0.6,102.9,0.4c4.5,0,9.1,0,13.6,0c0.3,0.7,0,1.3-0.3,1.9
			c-2.1,3.9-2.9,8-2.9,12.4c0,0.5,0,1.1-0.2,1.6c-0.6,0.9-1.5,0.8-2.4,0.8c-2.7,0.2-5.3-0.4-8-0.4c-31.3,0-62.6,0-93.9,0
			c-4.3,0-8.6-0.6-12.9-0.4c-0.7,0-1.3,0-1.8-0.6C17.4,86.9,18.3,81.4,21.8,76.5z"/>
		<path class="st20" d="M225.2,453.7c-2.6,5.7-5.7,11-9.6,15.8c-0.8,0.1-1.7,0.2-2.5,0.2c-26.6,0-53.2,0.1-79.7-0.1
			c-8.8-0.1-17.5-0.3-26.3-0.3c-0.6,0-1.2-0.1-1.8-0.3c-3.8-4.7-6.9-9.8-9.4-15.3c0-0.8,0.7-0.8,1.3-0.9c0.8-0.1,1.5-0.1,2.3-0.1
			c23.3,0,46.6-0.3,69.9,0.1c17.8,0.3,35.5,0.1,53.2,0.3C223.5,453.2,224.4,453,225.2,453.7z"/>
		<path class="st21" d="M286,228.8c2.3-4.9,4.8-9.7,8.1-14c0.4-0.3,0.9-0.3,1.4-0.3c33,0.2,66.1,0,99.1,0.1c4.6,0,9.2,0.1,13.7,0.6
			c3.5,4.5,6.2,9.4,8.4,14.6c-0.7,0.7-1.7,0.6-2.5,0.6c-25.6,0-51.3,0.3-76.9-0.1c-16.1-0.2-32.2,0-48.3-0.3c-0.9,0-1.9,0.1-2.8-0.4
			C285.9,229.5,285.7,229.2,286,228.8z"/>
		<path class="st22" d="M225.6,61.5c-2.4,0.8-4.8,0.4-7.2,0.3c-0.9,0-1.9-0.2-2.8-0.2c-32.4,0-64.7,0.1-97.1-0.1
			c-7.2,0-14.4-0.3-21.6-0.3c-0.6,0-1.2-0.1-1.7-0.4c3.2-5.1,6.3-10.1,10.1-14.8c1.4,0.2,2.7,0.2,4.1,0.2c17.7,0,35.4-0.2,53.1,0
			c18.1,0.2,36.1,0.3,54.2,0.3c0.1,0,0.2-0.1,0.3-0.1C220.6,51,223.4,56.1,225.6,61.5z"/>
		<path class="st23" d="M113.9,144.2c-5.3-4.6-9.6-10.1-13.2-16.1c0.7-1.1,1.9-0.9,2.9-0.9c4.6,0,9.2,0,13.8,0
			c13.4,0,26.7-0.2,40.1,0.1c19.9,0.4,39.8,0.2,59.8,0.3c1,0,2.2-0.3,2.9,0.9c-1.3,2.8-3.3,5.2-5.2,7.6c-2.4,3.1-5,6-8,8.5
			c-0.5,0.3-1,0.3-1.6,0.3c-26.7-0.1-53.4,0-80.1-0.1C121.5,144.8,117.7,144.6,113.9,144.2z"/>
		<path class="st24" d="M286,228.8c0.3,1.2,1.3,0.7,1.9,0.7c15.1,0,30.3-0.3,45.4,0.1c27.3,0.6,54.6,0.1,81.9,0.3c0.5,0,1,0,1.4,0
			c0.8,3.5,3.2,3.7,6.2,3.6c15.4-0.1,30.8,0,46.3-0.1c5.2,0,10,1.2,14.3,4c-0.1,1.1-1,1.2-1.7,1.2c-4.3,0.1-8.7,0.2-13-0.1
			c-1.2-0.1-2.4-0.2-3.6-0.2c-33,0-65.9,0-98.9,0c-0.1,0-0.2,0-0.3,0.1c-1,0.1-1.7-0.4-2.5-0.8c-7.4-4.4-15-4.7-22.8-1.2
			c-0.5,0.2-1.1,0.6-1.7,0.3c-1-0.3-2-0.4-3-0.4c-6.2,0-12.4,0.1-18.6,0c-43.2-0.5-86.3,0-129.5-0.4c-34.4-0.3-68.8,0.2-103.2-0.4
			c-16.4-0.3-32.8,0-49.1-0.3c-0.6,0-1.4,0.3-1.6-0.6c1.3-0.3,2.5-0.9,3.9-0.8c0.7-0.4,1.5,0,2.1-0.3c3.2,0,6.4,0,9.7-0.1
			c1.1-0.3,2.2-0.3,3.3,0c9.5,0,19,0,28.4,0c53.4,0,106.9,0,160.3,0c11.7,0,23.5-0.1,35.2,0.1C281.1,233.6,284.1,232.5,286,228.8z"
			/>
		<path class="st25" d="M408.4,215.2c-3.2,0.6-6.5,0.3-9.7,0.1c-0.9,0-1.8-0.2-2.6-0.2c-32.9,0-65.8,0-98.7,0
			c-1.1,0-2.1-0.1-3.2-0.4c4.5-6.8,10.2-12.5,16.9-17.2c3.9-0.4,7.9-0.2,11.8-0.2c21.3,0.4,42.5,0.3,63.8,0.3c1.5,0,3.1,0,4.6-0.1
			C398.2,202.4,403.8,208.2,408.4,215.2z"/>
		<path class="st26" d="M18,92.7c37,0.7,73.9,0.2,110.9,0.4c2.1,0,4.3,0.4,6.4,0.3c0.6,0,1.4,0.2,1.5-0.8c0.7,0.1,0.7,0.7,0.8,1.2
			c0.8,4.3,2.6,8.1,5.4,11.4c0.3,0.4,0.8,0.8,0.6,1.4c-0.5,0.6-1.2,0.4-1.9,0.4c-24.4,0-48.8,0.3-73.2-0.1
			c-12.9-0.2-25.9,0-38.8-0.2c-1.7,0-3.3-0.1-5,0.3C20.7,103.1,18.4,98.3,18,92.7z"/>
		<path class="st27" d="M284.1,282.9c-1.9-1.3-3.9-2-6.2-1.9c-2.7,0.1-5.4,0-8,0c-75.7,0-151.3,0-227,0c-4.1,0-8.1-0.4-11.7-2.4
			c0.2-1.2,1.2-1.3,2-1.3c3.5-0.1,7-0.2,10.6,0.1c1.8,0.1,3.7,0.2,5.5,0.2c31.6,0,63.2-0.3,94.8,0.1c34.8,0.4,69.5-0.2,104.3,0.3
			c29.9,0.5,59.9,0.1,89.8,0.3c0.6,0,1.2,0.1,1.8,0c0.7-0.2,1.3,0,1.9,0.3c2.2,0.9,4.4,1.5,6.8,1.7c1.6,0.4,3.2,0.3,4.8,0
			c4.4-0.6,8.3-2.2,11.9-4.8c0.6-0.5,1.2-0.9,2.1-0.7c1.1,0.2,2.2,0.3,3.4,0.3c31.7-0.3,63.4,0.6,95.1,0.4c5.4,0,10.7,0,16.1,0
			c0.9,0,1.9-0.2,2.7,0.6c-3.2,2.8-7.1,4.3-11.2,4.6c-12.4,0.9-24.8,0.3-37.2,0.4c-5.2,0-10.5,0.1-15.7-0.1c-1.8,0-2,1.4-2.9,2.2
			c-0.4,0.3-0.9,0.3-1.4,0.3c-22.6-0.1-45.3,0.3-67.9-0.1c-20-0.4-40-0.1-60-0.3C287,283.1,285.5,283.4,284.1,282.9z"/>
		<path class="st28" d="M216.9,46.5c-0.3,1-1.2,0.6-1.8,0.6c-12,0-24.1,0.3-36.1,0c-23.9-0.6-47.8-0.1-71.7-0.3
			c-0.7,0-1.8,0.5-2-0.8c2.1-3.2,4.7-5.9,7.5-8.5c3.1-2.9,6.4-5.7,10.1-7.9c0.4,0.8,1.1,0.8,1.8,0.8c12.2-0.3,24.4,0.4,36.6,0.4
			c11.9-0.1,23.7,0,35.6,0c0.9,0,1.9,0.2,2.6-0.7c6.7,4.2,12.4,9.4,17,15.9C216.5,46.1,216.7,46.3,216.9,46.5z"/>
		<path class="st29" d="M220.1,128.5c-0.8-0.5-1.6-0.3-2.4-0.3c-17,0-34,0.3-50.9-0.1c-21.1-0.5-42.2,0-63.2-0.3c-1,0-1.9,0-2.8,0.4
			c-2.5-3.7-4.5-7.7-6.2-11.8c1-0.3,2-0.4,3-0.4c1.1,0,2.3,0,3.4,0c41,0,82,0.6,122.9,0.3c1,0,1.9,0.4,2.8,0.4
			C224.6,120.7,222.8,124.8,220.1,128.5z"/>
		<path class="st30" d="M105.3,469.1c0.5-0.5,1.2-0.3,1.9-0.3c6.6,0,13.1-0.2,19.7,0c29,0.8,57.9,0.1,86.9,0.3
			c0.6,0,1.3-0.2,1.8,0.4c-3.9,5.4-8.6,9.9-14,13.9c-0.1,0.1-0.2,0-0.3,0c-1.3,0.3-2.7,0.3-4.1,0.3c-4.5,0-9.1,0.1-13.6,0
			c-20.6-0.4-41.2-0.4-61.8-0.3c-0.7,0-1.4-0.1-2.1-0.2C114,479.3,109.3,474.5,105.3,469.1z"/>
		<path class="st31" d="M340.4,278.5c-0.5,0.7-1.2,0.4-1.8,0.4c-28.5,0-57,0.3-85.5-0.1c-34.4-0.5-68.8,0.2-103.2-0.3
			c-34.6-0.5-69.1,0-103.7-0.4c-4.3,0-8.6-0.2-12.8-0.3c-0.8,0-1.7,0-2.3,0.8c-2.6-1-4.8-2.5-6.5-4.7c6.3,0,12.5,0,18.8,0
			c10.1,0,20.3-0.1,30.4,0c45.8,0.4,91.6,0,137.3,0.4c34.4,0.3,68.8-0.1,103.2,0.3c6.1,0.1,12.1,0.1,18.2,0.3c0.8,0,1.6,0,2.3-0.4
			c0.1-0.1,0.2-0.2,0.3-0.1C337,275.6,339,276.7,340.4,278.5z"/>
		<path class="st32" d="M225.2,453.7c-16.9,0-33.7,0.3-50.6-0.1c-25.5-0.6-51-0.1-76.5-0.3c-0.7,0-1.6-0.3-2.2,0.4
			c-0.8-1-1.3-2.2-1.6-3.4c-0.5-1.6-1.3-2.1-3.1-2.1c-14.1,0.1-28.1,0.1-42.2,0.1c-3.6,0-7.3,0.2-10.9-0.4c-2.8-0.4-5.6-1.1-8.1-2.6
			c0.1-1,0.8-1.1,1.5-1.2c0.8-0.1,1.5-0.1,2.3-0.1c25.7,0,51.5-0.2,77.2,0.1c11,0.1,21.9,0.1,32.9,0.3c1.2,0,2.5,0,3.7-0.1
			c0.9,0,1.7,0.4,2.5,0.8c2.3,1.1,4.6,1.8,7.1,2.3c3,0.6,5.9,0.1,8.8-0.5c1-0.2,2.1-0.6,3.2-0.6c21.4-0.2,42.7-0.4,64.1,0
			c18.7,0.3,37.4-0.2,56.2,0.3c16.2,0.4,32.4,0.1,48.6,0.3c1.1,0,2.5-0.5,2.9,1.3c-16.7,0-33.4,0-50.1,0c-19.5,0-39,0-58.5,0
			c-2.8,0-5,1.1-6.4,3.7C225.9,452.6,225.5,453.2,225.2,453.7z"/>
		<path class="st33" d="M148.2,444.8c-0.9,0.3-1.8,0.4-2.8,0.4c-0.3,0-0.6,0-0.9,0c-37.3-0.5-74.6-0.3-111.9-0.3
			c-0.8,0-1.8-0.4-2.4,0.6c-4.3-2.2-7.7-5.5-9.7-10c0.2-1,1-0.9,1.7-0.9c5.1,0,10.3-0.3,15.4,0.2c1.1,0.1,2.3,0.1,3.4,0.1
			c31.5,0,63.1,0,94.6,0c1.1,0,2.3-0.1,3.4,0.1c0.8,0.1,1.3,0.6,1.7,1.2c1.9,3,4.2,5.6,7.1,7.6C147.9,444,148.3,444.3,148.2,444.8z"
			/>
		<path class="st34" d="M113.9,144.2c2.5-0.6,5-0.4,7.5-0.2c0.9,0.1,1.9,0.2,2.8,0.2c26.6,0,53.2,0,79.7,0c1,0,2,0.1,3,0.4
			c-6.2,5.9-13.4,10.2-21.4,12.8c-19.2,6.2-38.1,5.6-56.5-2.8C123.4,152,118.3,148.5,113.9,144.2z"/>
		<path class="st35" d="M491.1,245.9c1.5,2.4,2.3,5.1,2.5,7.9c0.3,2.2,0,2.7-2.1,2.7c-6.7,0-13.4,0.4-20-0.2c-1-0.1-2-0.1-3-0.1
			c-30.1,0-60.1,0-90.2,0c-1.3,0-2.8,0.4-3.7-1.2c-0.8-2.6-1.2-5.3-2.3-7.7c-0.2-0.5-0.3-1,0.4-1.3c0.9-0.3,1.8-0.2,2.7-0.2
			c31,0,62.1-0.1,93.1,0.1c5.8,0,11.7,0.2,17.5,0.3C487.7,246.1,489.4,245.9,491.1,245.9z"/>
		<path class="st36" d="M226.2,397.1c-11.5,0-23,0.2-34.5,0c-32.3-0.7-64.5-0.1-96.8-0.3c1.3-3.1,2.8-6.1,4.6-8.9
			c0.8-0.6,1.8-0.6,2.7-0.6c5.2-0.2,10.5,0.3,15.7,0.3c31.4,0,62.8,0,94.2,0c2.7,0,5.3,0.5,8,0.4c0.6,0,1.2,0.2,1.7,0.6
			C223.7,391.2,225,394.2,226.2,397.1z"/>
		<path class="st37" d="M413.4,291.1c-1.5,3.1-3.3,5.9-5.4,8.6c-0.6,0.4-1.3,0.6-2,0.5c-2.3-0.4-4.6-0.2-7-0.2
			c-31.1,0-62.1,0-93.2,0c-4,0-8-0.2-11.9-0.5c-2.1-2.8-4-5.7-5.4-8.9c1-0.9,2.1-0.6,3.2-0.6c25.5,0,51-0.2,76.5,0.1
			c14.2,0.1,28.4,0.2,42.5,0.3C411.7,290.2,412.8,290,413.4,291.1z"/>
		<path class="st38" d="M491.1,245.9c-0.8,0.8-1.8,0.8-2.8,0.8c-5,0-10,0.1-15,0c-33.6-0.8-67.3-0.1-101-0.3c-0.1,0-0.1,0-0.2,0
			c-2.1-2.7-4.2-5.5-6.8-7.9c-0.1-0.1,0-0.2,0-0.3c0.7-0.4,1.5-0.4,2.3-0.4c33,0,66-0.1,99,0.1c5,0,10,0.2,15,0.3
			c0.7,0,1.5,0.2,1.9-0.6C487,239.5,489.5,242.3,491.1,245.9z"/>
		<path class="st12" d="M18.3,428.7c-0.8-3.2-0.6-6.5,0.1-9.7c0.7-1.1,1.7-0.9,2.7-0.9c4.4,0,8.7,0,13.1,0c13.1,0,26.2-0.2,39.3,0.1
			c20.4,0.4,40.8,0.2,61.1,0.3c1,0,2.2-0.2,2.9,1c0.5,2.2-0.4,4.3-0.1,6.5c0.1,0.8,0.5,1.7-0.3,2.5c-2.4-0.3-4.8-0.2-7.1-0.2
			c-14,0-28,0.3-42-0.1c-22-0.5-44-0.1-65.9-0.3C20.7,427.8,19.3,427.7,18.3,428.7z"/>
		<path class="st39" d="M413.4,291.1c-0.6-0.4-1.2-0.4-1.9-0.4c-27,0.2-54.1-0.6-81.1-0.4c-14,0.1-28,0-42,0
			c-1.6-2.4-2.3-5.3-4.3-7.5c1-0.3,2.1-0.4,3.2-0.4c18.5,0,37.1-0.3,55.6,0.1c24.2,0.5,48.4,0.1,72.5,0.3c0.8,0,1.5,0.2,2.3,0.4
			C416.5,286,415,288.6,413.4,291.1z"/>
		<path class="st40" d="M18.3,428.7c-0.2-1.6,0.9-1.5,1.9-1.5c12.9,0,25.8,0,38.6,0c6.7,0,13.5-0.2,20.2,0
			c18.7,0.7,37.4,0.1,56.1,0.3c0.7,0,1.4,0,1.9,0.7c1.2,2.2,2.1,4.6,2.5,7.2c-33.3,0-66.5,0.1-99.8-0.1c-5.8,0-11.7-0.2-17.5-0.3
			c-0.6,0-1.3-0.2-1.9,0.4C19.2,433.4,18.4,431.1,18.3,428.7z"/>
		<path class="st41" d="M137.1,419.7c-0.3-1.2-1.2-0.7-1.9-0.7c-16.9,0-33.7,0.3-50.6-0.1c-21.3-0.5-42.5-0.1-63.8-0.3
			c-0.8,0-1.7-0.2-2.4,0.3c0.7-3.1,1.8-6.1,3.9-8.6c0.5-0.3,1-0.3,1.6-0.3c16.8,0.1,33.5-0.3,50.3,0.1c20.8,0.5,41.6,0.1,62.4,0.3
			c1.3,0,2.5,0,3.6,0.7c0.5,0.4,0.4,0.8,0.2,1.3c-0.9,2.2-1.9,4.4-2.5,6.8C137.7,419.6,137.5,419.8,137.1,419.7z"/>
		<path class="st42" d="M374.8,254.6c0.3,1.3,1.4,1.1,2.3,1.1c24.1,0,48.3,0,72.4,0c6.3,0,12.6-0.2,19,0.1
			c7.6,0.3,15.2,0.2,22.8,0.3c1.7,0,2.5-0.4,2.2-2.2c0.8,3.2,0.3,6.3-0.4,9.3c-0.4,0.7-1.1,0.9-1.8,0.9c-0.8,0.1-1.5,0-2.3,0
			c-19.7,0-39.5,0.3-59.2-0.1c-17.6-0.3-35.3-0.1-52.9-0.3c-0.9,0-1.9,0.1-2.7-0.7C374.1,260.2,373.8,257.3,374.8,254.6z"/>
		<path class="st43" d="M140.3,411.7c-1.1-0.5-2.2-0.7-3.4-0.6c-0.1,0-0.1,0-0.2,0c-37.3,0.3-74.7-0.6-112-0.3
			c-0.9,0-1.6-0.2-2.5-0.4c2.1-3.3,5.1-5.6,8.6-7.2c0.5,0.6,1.1,0.4,1.7,0.4c24.4-0.2,48.7,0.6,73.1,0.4c12.9-0.1,25.7,0,38.6,0
			c1.1,0,2.1-0.1,3,0.8c0.1,0.4-0.1,0.7-0.4,0.9c-2.1,1.7-4,3.6-5.6,5.8C141,411.7,140.8,412,140.3,411.7z"/>
		<path class="st44" d="M221.9,388.5c-35.8-0.8-71.6-0.1-107.4-0.4c-5-0.1-10-0.2-15-0.3c1.3-2.4,2.8-4.7,4.6-6.8
			c0.9-0.6,1.9-0.6,2.9-0.6c6.9,0,13.7-0.2,20.6,0c28.7,0.8,57.4,0.1,86.2,0.3c1.2,0,2.4-0.1,3.5,0.6
			C219.1,383.6,220.6,386,221.9,388.5z"/>
		<path class="st45" d="M293.9,299.3c2.6-0.7,5.3-0.4,8-0.2c0.9,0,1.8,0.2,2.6,0.2c32.6,0,65.3,0,97.9,0c1.9,0,3.8,0.5,5.7,0.4
			c-1.9,2.7-3.9,5.4-6.4,7.5c-0.5,0.3-1,0.3-1.6,0.3c-4-0.2-8-0.1-12-0.1c-28,0-55.9-0.6-83.9-0.4c-1.4,0-2.8,0.5-4.2-0.2
			C297.8,304.5,295.6,302.2,293.9,299.3z"/>
		<path class="st46" d="M217.3,381.4c-37.7,0-75.4,0.1-113.1-0.4c1.9-2.8,4-5.3,6.5-7.5c0.7-0.3,1.5-0.2,2.3-0.2
			c16.5,0,33-0.1,49.5,0c15.5,0.1,31.1,0.5,46.6,0.3c0.6,0,1.2,0,1.8,0.2C213.3,376,215.4,378.6,217.3,381.4z"/>
		<path class="st47" d="M484.7,276.1c-16.9,0-33.7,0.2-50.6-0.1c-21.5-0.3-43-0.3-64.5-0.3c-1,0-1.9-0.1-2.7-0.7
			c-0.3-0.6,0.3-0.8,0.6-1.2c1.3-1.4,2.5-2.9,3.5-4.5c0.5-0.7,1-1.2,1.9-0.9c0.9,0.1,1.8,0.2,2.7,0.2c2.7,0,5.4,0,8.1,0
			c34.5,0.5,69.1,0.3,103.6,0.4c1.1,0,2.3-0.3,3.1,0.9C489,272.5,487.1,274.5,484.7,276.1z"/>
		<path class="st48" d="M300,306.9c1.7-0.5,3.4-0.3,5.1-0.3c15.7,0,31.4-0.2,47.1,0.1c15.6,0.3,31.2,0.2,46.8,0.3
			c0.9,0,1.8,0.2,2.6,0.4c-2.6,3-5.6,5.7-8.9,7.9c-0.6,0.3-1.2,0.5-1.9,0.5c-17-0.6-34-0.1-51.1-0.2c-9.1-0.1-18.2,0-27.3,0
			c-1,0-1.9,0-2.8-0.2C306,312.8,302.8,310.1,300,306.9z"/>
		<path class="st49" d="M210.8,373.9c-0.7,0.4-1.5,0.4-2.3,0.4c-10.1,0-20.3,0.2-30.4-0.1c-21.9-0.6-43.7-0.1-65.6-0.3
			c-0.7,0-1.3,0-1.9-0.3c3-3.2,6.4-5.9,10-8.3c0.8-0.3,1.6-0.2,2.5-0.2c6.8,0,13.6-0.2,20.4,0c18.6,0.7,37.2,0.1,55.7,0.3
			c0.6,0,1.3,0,1.9,0.2C204.7,368,208,370.6,210.8,373.9z"/>
		<path class="st50" d="M119.5,483.2c0.5-0.6,1.2-0.4,1.8-0.4c15.4,0,30.8-0.3,46.1,0.1c10.7,0.3,21.4,0.1,32.1,0.3
			c0.5,0,1.1-0.2,1.5,0.3c-6.7,5.2-14.2,8.4-22.4,10.4c-4.5,1.1-9.1,1.7-13.7,1.9c-1,0-1.9,0-2.9,0c-1,0-1.9,0-2.9,0
			c-1,0-1.9,0-2.9,0c-13.1-0.6-25.2-4.3-36.1-11.8C120,483.7,119.8,483.4,119.5,483.2z"/>
		<path class="st51" d="M490.3,270c-0.8-0.5-1.6-0.3-2.4-0.3c-25.4,0-50.8,0.2-76.2-0.1c-12.6-0.2-25.1-0.1-37.7-0.3
			c-0.7,0-1.5,0.3-1.7-0.8c0.1-2.1,0.8-4,2.2-5.7c0.5,0.6,1.2,0.4,1.8,0.4c32.7,0.1,65.4,0.3,98.1,0.4c5.6,0,11.2,0,16.8,0
			c0.7,0,1.4,0.1,2.1-0.3C492.7,265.6,491.8,267.9,490.3,270z"/>
		<path class="st52" d="M201.2,365.6c-0.9,0.3-1.8,0.4-2.8,0.4c-16.6,0-33.2,0.2-49.7-0.1c-8.6-0.2-17.3-0.1-25.9-0.3
			c-0.7,0-1.4-0.2-2.1-0.3c8.3-5.9,17.6-9.7,27.6-11.4c18.9-3.3,36.3,0.6,52.2,11.2C200.7,365.2,200.9,365.4,201.2,365.6z"/>
		<path class="st53" d="M391.2,197.7c-0.4,0.8-1.2,0.6-1.9,0.6c-16.5,0-33,0.3-49.5-0.1c-9-0.2-18.1-0.1-27.1-0.3
			c-0.6,0-1.2,0.2-1.7-0.4c7.8-5.6,16.5-9,25.8-10.6c12.1-2.1,24.1-1.7,35.9,1.7C379.4,190.7,385.6,193.5,391.2,197.7z"/>
		<path class="st54" d="M309.6,315.2c0.5-0.7,1.2-0.4,1.8-0.4c25.7,0,51.4,0,77.1,0c1.4,0,2.8,0.6,4.2,0.4
			c-4.4,3.5-9.3,6.3-14.7,8.3c-1.5,0.2-3.1,0.2-4.6,0.2c-14.2,0-28.5,0-42.7,0c-2.1,0-4.3,0-6.4-0.2
			C319,321.3,314,318.8,309.6,315.2z"/>
		<path class="st55" d="M324.3,323.4c0.5-0.6,1.2-0.4,1.8-0.4c16.6,0,33.3,0,49.9,0c0.7,0,1.4,0,2.1,0.4c-4.2,2.1-8.7,3.3-13.2,4.1
			c-13.6,2.6-26.9,1.4-39.8-3.7C324.8,323.7,324.5,323.6,324.3,323.4z"/>
		<path class="st18" d="M53,233.4c-1.1,0-2.2,0-3.3,0C50.8,233,51.9,233,53,233.4z"/>
		<path class="st18" d="M40.1,233.5c-0.7,0.5-1.4,0.2-2.1,0.3C38.6,233.3,39.4,233.5,40.1,233.5z"/>
		<path class="st56" d="M184.4,426.5c18.7,0,37.3-0.3,56,0.1c34.9,0.6,69.9-0.2,104.8,0.4c34.1,0.5,68.2-0.1,102.3,0.4
			c14.9,0.2,29.8,0.1,44.7,0.3c0.6,0,1.4-0.2,1.5,0.8c-0.3,2.7-1.1,5.1-2.5,7.4c-1.3-0.5-2.6-0.4-3.9-0.4c-26.6,0-53.2,0.3-79.8-0.1
			c-34.8-0.5-69.5,0.2-104.3-0.3c-34.2-0.5-68.5,0-102.7-0.3c-5.3-0.1-10.6-0.3-15.9-0.3c-0.5,0-1.1,0-1.6-0.2
			c-0.5-0.2-0.7-0.7-0.6-1.2c0.5-1.9,1-3.8,1.4-5.7C183.8,426.8,184.1,426.6,184.4,426.5z"/>
		<path class="st57" d="M182.5,433.7c14.6,0.1,29.2,0.5,43.8,0.4c23.9-0.1,47.8-0.3,71.8,0c34.6,0.5,69.3-0.2,103.9,0.4
			c29,0.5,58.1,0.1,87.1,0.3c0.7,0,1.9-0.6,2,1c-1.3,2.2-2.4,4.6-4.7,6.1c-1,0.2-2,0.3-3,0.3c-31.2,0-62.4,0.3-93.6-0.1
			c-34.4-0.4-68.7,0.2-103.1-0.3c-34.6-0.5-69.2-0.1-103.8-0.3c-1.4,0-2.8,0.1-4-0.7c-0.5-0.4-0.8-1-0.4-1.5
			c1.3-1.7,2.3-3.6,3.4-5.4C182.1,433.7,182.3,433.7,182.5,433.7z"/>
		<path class="st58" d="M178.5,440.1c1.2,0.6,2.5,0.8,3.8,0.8c33,0,65.9-0.3,98.9,0.1c34.6,0.4,69.3-0.2,103.9,0.3
			c33.1,0.5,66.3,0.1,99.4,0.3c0.6,0,1.3-0.2,1.9,0.3c-3.4,3.6-7.7,5.2-12.4,6.1c-2.1,0.4-4.3,0.4-6.4,0.4c-41.7,0-83.5,0-125.2,0
			c-0.4,0-0.8,0-1.2,0c-0.5-1-1.4-0.7-2.2-0.7c-14.8,0-29.6,0.3-44.4-0.1c-18.7-0.5-37.4,0.2-56.1-0.3c-22.8-0.6-45.6-0.1-68.5-0.3
			c-0.4,0-0.7,0-1.1,0c0-0.6,0.5-0.8,0.9-1c2.9-1.3,5.4-3.1,7.7-5.3C177.7,440.3,178.1,440,178.5,440.1z"/>
		<path class="st39" d="M348.7,280.8c1.6,0,3.3,0,4.9,0C352,281.2,350.3,281.2,348.7,280.8z"/>
	</g>
</g>
</svg>
