<?xml version="1.0" encoding="utf-8"?>
<!-- Generator: Adobe Illustrator 27.8.1, SVG Export Plug-In . SVG Version: 6.00 Build 0)  -->
<svg version="1.1" xmlns="http://www.w3.org/2000/svg" xmlns:xlink="http://www.w3.org/1999/xlink" x="0px" y="0px"
	 viewBox="0 0 512 512" style="enable-background:new 0 0 512 512;" xml:space="preserve">
<style type="text/css">
	.st0{fill:#5200A2;}
</style>
<g id="Layer_2">
</g>
<g id="Layer_1">
	<path class="st0" d="M214.2,15.7c8.1,0,16.2,0,24.3,0c1.2,0.3,2.4,0.7,3.6,0.8c35.2,2.6,67.6,13.6,97.3,32.5
		c93.7,59.8,124.2,183.7,68.8,280.2c-4.2,7.4-9,14.5-14.1,22.6c1.3,1,2.9,1.8,4.1,3c15.3,15.2,30.5,30.4,45.7,45.6
		c14.1,14.1,28.2,28.2,42.4,42.3c7.6,7.5,11.2,16.5,9.2,27.2c-2.1,11.7-9,19.8-20.4,23.4c-11.8,3.8-22.2,0.9-31-7.7
		c-29.5-29-58.9-58-88.3-87.1c-1.6-1.6-3.3-3.2-4.8-4.7c-1.7,1.1-2.8,1.9-4,2.7c-33.5,23.6-70.8,36.3-111.7,38.1
		c-41.9,1.8-81.2-7.8-116.9-29.8c-53.3-32.8-86.2-80.1-98.1-141.6c-1.6-8.2-2.4-16.6-3.6-24.9c0-8.7,0-17.5,0-26.2
		c0.3-1.4,0.6-2.7,0.8-4.1c2.2-12.9,3.1-26.2,6.9-38.5c25.2-82,79.9-132.3,163.9-150.3C196.9,17.6,205.6,16.9,214.2,15.7z
		 M76.6,225.2c-0.1,82.7,66.8,149.8,149.5,150c82.5,0.2,149.8-66.9,150-149.5c0.2-82.5-66.9-149.8-149.5-150
		C144,75.5,76.8,142.6,76.6,225.2z"/>
	<polygon class="st0" points="83.3,215.9 143.3,155.6 195.8,293.9 280.1,159.3 312.5,240.7 367.1,215.4 312.1,256.2 304.3,260.7 
		276.1,188.7 191.5,323.3 134.8,177.9 	"/>
</g>
</svg>
