<?xml version="1.0" encoding="utf-8"?>
<!-- Generator: Adobe Illustrator 27.8.1, SVG Export Plug-In . SVG Version: 6.00 Build 0)  -->
<svg version="1.1" id="Layer_2" xmlns="http://www.w3.org/2000/svg" xmlns:xlink="http://www.w3.org/1999/xlink" x="0px" y="0px"
	 viewBox="0 0 512 512" style="enable-background:new 0 0 512 512;" xml:space="preserve">
<style type="text/css">
	.st0{fill:#2195F2;}
	.st1{fill:#607D8A;}
	.st2{fill:#DAEDFC;}
</style>
<g>
	<path class="st0" d="M31.8,249.4c1.6-42.3,13.4-81.4,37.1-116.5c35.6-52.8,84.7-86.1,147.5-97.2c67.1-11.9,128,4,181,47
		c44.8,36.4,72.1,83.6,80,140.9c10.1,73.1-11,136.5-62,189.8c-10.8,11.2-28.2,7.4-32.2-6.9c-2.1-7.6,0.2-14,5.7-19.5
		c11.8-11.9,21.9-25.1,30-39.7c20.3-36.5,28.1-75.5,21.6-116.6c-11.4-72.6-51.7-124.1-120.5-149.2c-73.2-26.7-139.8-10.9-196,42.9
		c-34.9,33.5-52.8,75.8-54.6,124.4c-2,53.2,15.9,99.1,52.7,137.5c5.3,5.5,8.5,11.5,6.7,19.3c-1.6,6.9-5.9,11.8-12.8,13.7
		c-7.1,2-13.6,0.4-18.9-5C79,396,64.3,375.4,53.3,352.2c-12.8-26.8-19.7-55.1-21.3-84.8c-0.1-1.1,0.5-2.4-0.9-3.1c0-0.6,0-1.2,0-1.8
		C32.2,258.2,30.9,253.8,31.8,249.4z"/>
	<path class="st1" d="M251.2,480.9c-6.5-3.1-12.1-7.1-13.5-14.8c-0.4-2.1-0.5-4.3-0.5-6.5c0-48.6,0-97.3,0-145.9
		c0-3-0.6-4.5-3.6-5.8c-23.2-10.1-36.3-33.6-33.2-59c2.9-23.6,22.7-43.7,46.8-47.5c27.4-4.4,54,12.4,62.3,39.1
		c8.2,26.5-4.5,55.1-30.2,66.8c-3.7,1.7-4.7,3.6-4.7,7.4c0.1,47.3-0.1,94.7,0.2,142c0.1,11.7-3.5,20.1-14.9,24.2
		C257,480.9,254.1,480.9,251.2,480.9z"/>
	<path class="st2" d="M31.8,249.4c-0.2,4.4,1.1,8.9-0.7,13.2c0-4.4,0-8.8,0-13.2C31.3,249.4,31.6,249.4,31.8,249.4z"/>
	<path class="st0" d="M143.9,256.1c0.2,30.3,10.9,56.4,32,78.2c8.3,8.6,8.3,20.8,0.2,28c-7.6,6.7-18.6,6.3-26.1-1.1
		c-21.2-21.3-35-46.6-40.7-76.1c-11.7-60.9,14.2-121.3,66-154.7c59.3-38.3,138-29.4,187.2,21.3c29.2,30.1,43.6,66.4,42.7,108.2
		c-0.9,39.2-15.5,73-43,101c-7.8,8-19.5,8.3-27,0.9c-7.5-7.4-7.4-18.9,0.5-27c23.3-24.1,33.8-53,32.1-86.4
		c-2.5-49.6-42.7-94-91.7-102.5c-60.8-10.6-117,28.8-129.6,86.4C144.7,240.1,143.8,248,143.9,256.1z"/>
</g>
</svg>
