<?xml version="1.0" encoding="utf-8"?>
<!-- Generator: Adobe Illustrator 27.8.1, SVG Export Plug-In . SVG Version: 6.00 Build 0)  -->
<svg version="1.1" xmlns="http://www.w3.org/2000/svg" xmlns:xlink="http://www.w3.org/1999/xlink" x="0px" y="0px"
	 viewBox="0 0 512 512" style="enable-background:new 0 0 512 512;" xml:space="preserve">
<style type="text/css">
	.st0{fill:#4CAE50;}
	.st1{fill:#2195F2;}
	.st2{fill:#FEFEFE;}
</style>
<g id="Layer_2">
</g>
<g id="Layer_1">
	<g>
		<path class="st0" d="M496,159.1c-2,3.2-1.6,6.9-2.3,10.4c-7,35.2-26.2,62.8-51.9,86.2c-17.2,15.6-36.4,28.2-57.2,38.3
			c-5.6,2.7-10.8,2.8-16.5,0c-35.8-17.8-66.9-41.3-89.2-75.5c-14.7-22.5-22.4-47.4-22.3-74.6c0-26.4,0-52.8,0-79.3
			c0-9.1,3.3-14,11.5-16.9c33.9-11.8,67.7-23.5,101.6-35.3c1.3-0.4,2.9-0.2,3.8-1.4c1.9,0,3.7,0,5.6,0c12.2,2,23.6,6.8,35.2,10.9
			c22.1,7.8,44.3,15.1,66.3,23.1c1.8,0.6,3.5,1.3,5.3,2c5.8,2.3,9.8,6,10.2,12.8C496,92.8,496,125.9,496,159.1z"/>
		<path class="st1" d="M344.4,371.7c0.2,32.9-17.8,57.7-46.5,64.8c-34.8,8.6-69.7-16.9-73.4-53.3c-0.8-7.5,0.3-15-1.2-22.4
			c-3.8-18.5-18.2-30.6-36.9-31.1c-15.9-0.5-30.7,12.4-35.6,30.5c-3.8,14.1-1.4,27.6,4.3,40.4c12.4,28.4,32.9,49.5,58.9,65.2
			c3.6,2.2,7.5,3.5,11.9,4c8,0.8,13.5,8,13,16.4c-0.5,7.8-7.1,14-15.1,13.9c-7.8-0.1-15.1-2.8-21.7-6.6
			c-39.7-22.7-69-54.6-80.4-100.5c-7.7-31.1,0.3-58.9,25-79.4c38.4-31.9,97.3-8.6,106.2,41.4c1.5,8.4,0.6,16.8,1.6,25.2
			c2,16.5,15.3,28.1,31.7,27.4c15.1-0.6,28-14.2,28.4-30.1c0.6-26-5.4-50.4-17.8-73.2c-5.5-10-1.2-20.7,9.3-23.2
			c6.3-1.5,12.7,1.2,16.3,7.5c11.8,20.8,18.8,43.2,21.3,67.1C344,361.2,344.7,366.9,344.4,371.7z"/>
		<path class="st1" d="M73.8,369.9c0.4-59,40.6-107.1,95.1-116.1c61.2-10.1,120.3,34.4,128.9,97c0.7,5.3,1.3,10.8,1.4,16.1
			c0.3,9.4-5.9,16.4-14.3,16.7c-9,0.3-15.1-6-15.5-15.8c-1.8-42.1-27.6-74.5-66.4-83.1c-44.8-10-90.9,22.6-98.1,68.9
			c-3.5,22.4,2.2,42.5,12.2,61.9c11.1,21.4,25.5,40.3,41.7,57.9c8.6,9.3,5.4,22.9-6.2,26.2c-5,1.4-9.9,0.5-13.5-3.2
			c-28.3-30-52.1-62.9-62.6-104.1C74.5,384.2,73.6,376,73.8,369.9z"/>
		<path class="st1" d="M28.3,368.1c0.5-77.3,52.6-142.9,126.8-158.9c36-7.7,70.6-2.6,103.3,15.2c8.7,4.7,11.9,13.6,7.8,21.5
			c-4.1,7.9-12.9,10-21.8,5.5c-48.9-24.5-95.2-19.8-137.9,14.3c-29,23.2-44.5,54.7-47.6,92.3c-2.9,34.7,6.8,65.7,27.6,93.1
			c3.5,4.6,5.3,9.4,3.9,15c-1.4,5.7-5.1,9.5-10.7,10.9c-6.1,1.5-11.4-0.2-15.5-5.3c-10.1-12.7-18.2-26.6-24.2-41.7
			C32.2,410.1,28.6,389.4,28.3,368.1z"/>
		<path class="st1" d="M16.9,257.8c-0.5-3.2,0.9-6.2,2.9-9c32.5-46.4,75.9-75.5,130.9-86c26.5-5.1,53-4.6,79.3,1.7
			c9.6,2.3,14.7,9.9,12.8,18.3c-2.1,9-9.8,13.6-19.5,11.4c-42.1-9.3-82.1-3.2-119.8,17.7c-23.5,13-43,30.9-58.3,53.4
			c-4,5.8-9,9.3-16.1,8.1C21.6,272.1,16.9,266,16.9,257.8z"/>
		<path class="st1" d="M187.4,113.1c12.7-0.1,26.2,1.1,39.5,3.8c9.3,1.9,14.4,9.2,12.7,18.3c-1.4,8-9,13.2-17.6,11.6
			c-35.9-6.3-71-3.6-105,10.3c-20.1,8.2-38.3,19.8-54.6,34.3c-9.6,8.5-23.1,4.2-25.4-8c-1.1-6,1.1-10.8,5.6-14.8
			c21.9-19.7,46.6-34.4,74.3-43.9C139.5,116.8,162.7,112.8,187.4,113.1z"/>
		<path class="st1" d="M266.9,476.9c-20.1-1.1-37.3-9.5-52.3-22.6c-27.6-24-42.8-54.5-44.1-91.7c-0.3-10,6.1-17.1,14.9-17.1
			c8.6,0,14.5,6.8,15,16.6c2,35,18.5,60.9,47.9,78.5c6.1,3.7,12.9,5.4,20,5.9c9,0.6,15.3,7.3,14.9,15.6
			C282.8,470.7,275.8,477.1,266.9,476.9z"/>
		<path class="st2" d="M333.4,133.3c2.5,0,6.1,2,9.2,5.2c8,8.3,16.2,16.3,24.1,24.7c2.4,2.6,3.5,2.2,5.5-0.4
			c15.4-21.2,31-42.3,46.5-63.4c4.2-5.6,9.6-7.9,16.4-6.2c5.8,1.5,10,6.5,10.9,12.9c0.6,4.2-0.7,7.9-3.1,11.2
			c-19.7,26.9-39.4,53.8-59.2,80.5c-6.5,8.8-16.1,9.2-23.8,1.5c-13.1-13.2-26.1-26.5-39-39.8c-4.7-4.9-5.7-11.3-3.2-17.2
			C320.1,136.8,325.5,133.2,333.4,133.3z"/>
	</g>
</g>
</svg>
