<?xml version="1.0" encoding="utf-8"?>
<!-- Generator: Adobe Illustrator 27.8.1, SVG Export Plug-In . SVG Version: 6.00 Build 0)  -->
<svg version="1.1" xmlns="http://www.w3.org/2000/svg" xmlns:xlink="http://www.w3.org/1999/xlink" x="0px" y="0px"
	 viewBox="0 0 1200 1200" style="enable-background:new 0 0 1200 1200;" xml:space="preserve">
<style type="text/css">
	.st0{display:none;}
	.st1{display:inline;fill:#1DB6C4;}
	.st2{fill:#1D82D3;}
	.st3{fill:#2195F2;}
</style>
<g id="Layer_1" class="st0">
	<path class="st1" d="M59.1,557.6v-67.9l892.7,0.9L688.1,295c-6.6-4.8-10.8-23.2-7.1-30.5c0.4-0.9,1-1.4,1.3-2
		c14.4-27.4,46.9-23,64-11.7c132,87.4,257.7,189.7,389.3,278.4c10.3,9.6,2.5,22.1,2.5,22.1c-0.9,1.7-5.9,6.3-10.5,6.3L59.1,557.6
		L59.1,557.6z"/>
	<path class="st1" d="M1140.9,642.4v67.9l-892.7-0.8L511.9,905c6.6,4.8,10.8,23.2,7.1,30.5c-0.4,0.9-1,1.4-1.3,2
		c-14.4,27.5-46.9,23-64,11.7C321.7,861.9,196,759.5,64.5,670.8c-10.3-9.6-2.5-22.1-2.5-22.1c0.9-1.7,5.9-6.3,10.5-6.3L1140.9,642.4
		L1140.9,642.4z"/>
</g>
<g id="Layer_2">
	<g>
		<path class="st2" d="M1184.5,844c-5.9,11.2-15.4,19.3-24.3,27.8c-76.1,72.2-152.3,144.3-228.3,216.5
			c-12.3,11.6-26.2,15.2-41.8,8.7c-15.7-6.6-22.8-19.3-22.8-36.1c0-31.5-0.4-63,0.2-94.5c0.2-9.7-2.8-11.8-12.1-11.8
			c-143.4,0.3-286.8,0.2-430.3,0.3c-25.7,0-47-8-60.7-31c-3.7-6.2-6.8-12.7-6.7-20.2c-1.9-21.9-0.3-43.9-0.9-65.9
			c-0.2-5.4,2.7-7.4,7.4-8.2c4.9-0.9,9.9-0.7,14.8-0.7c261.5,0,523.1,0,784.6,0c7.1,0,14.6-1.4,20.8,3.7
			C1184.5,836.4,1184.5,840.2,1184.5,844z"/>
		<path class="st2" d="M842.2,466.2c-3,24.8-24.2,46.4-49.2,49.7c-7.5,1-15.1,1.5-22.7,1.5c-141.9,0.1-283.8,0.2-425.7-0.1
			c-9.2,0-12.4,1.9-12.1,11.7c0.7,30.7,0.1,61.5,0.3,92.3c0.1,17.6-6.2,31.4-22.8,38.4c-16.6,7-30.7,2.1-43.5-10.2
			C190.6,577,114.4,504.9,38.2,432.8c-8.4-8-17.2-15.7-22.7-26.2c0-3.8,0-7.6,0-11.4c5.5-4.7,12.2-3.7,18.5-3.7
			c62-0.1,123.9,0,185.9,0c187,0,374-0.1,561.1,0.2c20,0,40.2-3.2,60,2.5c4.7,19.8,1,39.8,2,59.7
			C843.2,457.9,843.9,462.2,842.2,466.2z"/>
		<path class="st3" d="M1184.5,832.6c-270.4,0-540.7,0-811.1,0c-15.4,0-15.4,0-15.4,15.3c0,18.6-0.1,37.2-0.2,55.8
			c-3.1-4.5-1.9-9.6-1.9-14.4c0-37.9,0.1-75.9,0.4-113.8c0.3-38.6,25.7-64.1,64.5-64.1c144.5-0.1,288.9-0.2,433.4,0.2
			c11.1,0,14-2.8,13.7-13.8c-0.8-30.3-0.2-60.7-0.3-91.1c-0.1-17.4,5.9-31.5,22.8-38.4c16.2-6.6,30.1-1.9,42.6,9.9
			c78.2,74.3,156.4,148.5,234.8,222.6c7,6.6,12.1,14.3,16.6,22.5C1184.5,826.6,1184.5,829.6,1184.5,832.6z"/>
		<path class="st3" d="M842.2,466.2c-0.1-20.1-0.5-40.2,0-60.3c0.2-8.6-2.7-10.9-11.1-10.9c-43.7,0.4-87.5,0.2-131.2,0.2
			c-228.1,0-456.3,0-684.4,0c0-3,0-6.1,0-9.1c4.8-10.5,12.5-18.6,20.8-26.4c77-72.8,153.9-145.7,230.7-218.7
			c12.5-11.9,26.4-16.6,42.6-10c16.9,6.9,22.9,21,22.8,38.4c-0.1,30.7,0.4,61.5-0.3,92.2c-0.2,10,2.4,12.7,12.5,12.6
			c142.9-0.4,285.9,0.6,428.8-0.8c45.8-0.4,72,30.8,70.6,70.3c-1.3,36,0,72.1,0,108.1C844.1,456.6,845.3,461.7,842.2,466.2z"/>
	</g>
</g>
</svg>
