<?xml version="1.0" encoding="utf-8"?>
<!-- Generator: Adobe Illustrator 27.8.1, SVG Export Plug-In . SVG Version: 6.00 Build 0)  -->
<svg version="1.1" xmlns="http://www.w3.org/2000/svg" xmlns:xlink="http://www.w3.org/1999/xlink" x="0px" y="0px"
	 viewBox="0 0 512 512" style="enable-background:new 0 0 512 512;" xml:space="preserve">
<style type="text/css">
	.st0{fill:#F14C68;}
</style>
<g id="Layer_1">
</g>
<g id="Layer_2">
</g>
<g id="Layer_3">
	<path class="st0" d="M449.7,401.2c-0.5-6.9-3.9-12.5-8.7-17.2c-7.6-7.4-15.8-14.2-23.4-21.6c-12.9-12.4-25.8-24.6-39-36.6
		c-8.9-8.2-22.1-7.5-30.2,0.9c-8.3,8.7-8.2,21.8,0.6,30.5c4.3,4.3,8.8,8.3,13.3,12.5c5.2,4.9,10.4,9.8,16.4,15.3c-3,0-4.9,0-6.7,0
		c-47.8,0-95.6,0-143.5,0c-23.5,0-47,0.2-70.5-0.1c-19.1-0.2-34.6-8.6-44.8-24.2c-10.7-16.3-11.8-34.4-3.7-52.6c0.9-2,2.5-3.6,2.4-6
		c14.1-19.2,33.2-25.9,56.7-25.6c61,0.7,122,0.2,182.9,0.3c30.5,0,55.9-11.3,75.8-34.3c12.4-14.4,20.1-31,22.1-50.1
		c1.9-6.6,0.3-13.3,0.2-19.9c-0.4-20.8-8.2-38.5-21.2-54.3c-1.5-1.8-2.8-3.8-4.5-5.5c-19.7-20.4-43.8-30.5-72-30.6
		c-38.5-0.1-77.1-0.1-115.6,0c-3.6,0-5.2-0.9-6.3-4.6c-1.7-5.4-3.9-10.6-6.6-15.5c-20.5-37.1-64.5-53.9-104.3-40
		c-39.9,13.9-63.6,54.3-56.6,96.3c6.2,38.8,39.1,68.8,78.8,71.8c39.4,3,76.5-21.8,88.5-59.5c1.3-4.2,3.1-5.3,7.3-5.3
		c38,0.2,76.1,0.1,114.1,0.1c6.5,0,12.8,0.7,18.9,2.8c25.8,8.6,39.7,32.1,36.4,61.6c-0.7,2.4-1.4,4.8-2.2,7.2
		c-7.8,22.6-28.1,36.7-53.3,36.7c-64.7,0.1-129.4,0-194,0.1c-19.8,0-37.9,6-54.1,17.3c-17.7,12.5-30.5,28.8-36.8,49.8
		c-5.4,14.4-6.3,29.2-4,44.2c3.4,22.6,13.4,41.8,30.4,57.2c0.7,0.7,1.3,1.5,2.1,2.2c19,16.3,41.2,24,66.1,24c70.3,0,140.6,0,210.9,0
		c1.9,0,3.9-0.6,6.2,1c-9.3,8.5-18.1,16.8-27.3,24.8c-7.6,6.6-10.3,18-5.8,27.1c4.5,9,14.8,13.7,24.8,11.2c3.9-1,7.1-3,10-5.7
		c20-18.6,40.2-37.2,60.1-56C448,422.8,452.3,413.1,449.7,401.2z M124.6,140.4c-9.1-5.7-14.9-14-18.6-23.8c-0.9,1.5-2.2,1.7-3.6,1.7
		c1.4,0,2.7-0.1,3.6-1.7c-2.6-11.3-2.3-22.4,3.2-32.9c10.3-19.7,34-28.4,54.5-20.1c20.4,8.2,31.4,30.6,25.4,51.8
		c-0.4,1.3-0.7,2.6-1.1,3.9C176.6,146.7,146,153.7,124.6,140.4z"/>
</g>
</svg>
