<?xml version="1.0" encoding="utf-8"?>
<!-- Generator: Adobe Illustrator 27.8.1, SVG Export Plug-In . SVG Version: 6.00 Build 0)  -->
<svg version="1.1" xmlns="http://www.w3.org/2000/svg" xmlns:xlink="http://www.w3.org/1999/xlink" x="0px" y="0px"
	 viewBox="0 0 512 512" style="enable-background:new 0 0 512 512;" xml:space="preserve">
<style type="text/css">
	.st0{fill:#4E9AB8;}
	.st1{fill:#F59388;}
	.st2{fill:#90CAD6;}
	.st3{fill:#FECF85;}
	.st4{fill:#68607C;}
	.st5{fill:#EC6571;}
</style>
<g id="Layer_2">
</g>
<g id="Layer_1">
	<g>
		<path class="st0" d="M123.7,387.4c-12.4,16.4-28.7,25-49.5,24.5c-29-0.7-53.6-24.5-55.4-53.4c-1.9-30,19.1-56.2,48.2-60.9
			c11.8-1.9,22.8,0.3,33.7,4.2c5.9,0.9,9.9,5.1,14.6,8.1c18,17.7,24.3,38.6,17.1,63.1C129.8,378,128.9,384,123.7,387.4z"/>
		<path class="st1" d="M200.8,86.7c-2.1-13-0.9-25.5,4.9-37.5c11.1-22.7,35.1-34.8,57.8-31.9c27.5,3.5,46.4,22.3,50.7,48.3
			c2.7,16.2-1.9,30.4-10.5,43.8c-2.1,5.8-7.4,8.7-11.4,12.7c-18.6,12.7-38.2,15.2-59.1,6.1c-5.2-2.6-10.2-5.5-14.5-9.4
			c-5.7-4.6-9.7-10.6-13.5-16.7C203.4,97,200.1,92.4,200.8,86.7z"/>
		<path class="st2" d="M306.4,405.6c5,10.2,8.8,20.7,8.6,32.3c-0.4,27.4-21.4,51-48.4,55.6c-35,5.9-68.9-22.2-66.9-60.5
			c0.1-2.4,2-5,0.1-7.4c0.7-5.6,2.9-10.6,5.2-15.7c3-6.3,7.6-11.4,11.9-16.8c4.7-2.9,9-6.5,13.8-9.4c6.1-2.1,12.1-4.9,18.7-5.3
			c5.3-1.1,10.6-1.1,15.9,0c11.3,1.2,21,6.2,30,13C299.5,395.7,304.2,399.7,306.4,405.6z"/>
		<path class="st2" d="M98.8,193.9c-7.3,1.7-14.4,4.1-22,4.1C43,198,16,169.6,18.9,136.1c1.9-22.6,13.6-39.3,34.5-48.3
			c21.1-9.1,40.9-5.9,59.3,8c6.3,4.8,10,11.6,15.2,17.2c3.6,4.7,4.4,10.6,6.7,15.8c1.3,10.1,1.2,20.1-2.1,29.9
			c-2.1,5.3-4.5,10.4-7.6,15.1c-3.5,4.4-6.8,8.9-11.3,12.4C108.9,189.3,104.6,193,98.8,193.9z"/>
		<path class="st3" d="M403.6,209.4c11.1-7.3,23-11.6,36.6-11.4c27,0.5,50.6,21.6,55,48.3c5.9,35.2-22.2,68.9-60.4,66.8
			c-11-0.6-20.8-4.9-30.2-10.4c-5.6-2.1-8.6-7.2-12.7-11.1c-8.3-10.7-12.3-22.9-12.5-36.3c-0.1-5.3,0.9-10.5,2.1-15.6
			c2.5-6.8,5.2-13.5,9.7-19.3C394.9,216.2,398.1,211.5,403.6,209.4z"/>
		<path class="st4" d="M98.8,193.9c4.8-2.7,9.5-5.5,14.3-8.2c2.2,0.8,2.9,2.8,3.9,4.5c7.8,12.7,15.3,25.6,22.9,38.4
			c0.9,1.4,1.6,3,3.1,4.6c4.2-5.7,7.9-11.4,11.4-17.2c3.2-5.3,6.8-10.3,10.2-15.5c2-3,1.6-4.7-1.8-6.4c-11.4-5.5-22.7-11.3-34-17
			c-1.9-1-4.2-1.6-5.1-4c2.9-4.6,5.6-9.3,7.2-14.5c2.4-1.3,4.3,0.4,6.2,1.4c12,5.9,23.9,11.9,35.8,17.9c3.4,1.8,5.3,1.3,7.5-2
			c11.6-18,23.3-35.9,34.9-53.9c1.1-1.7,1.9-3.7,4.2-4.2c4,3.8,9,6.2,13.5,9.2c0.9,2.2-0.7,3.6-1.6,5.1
			c-11.1,17.3-22.4,34.5-33.5,51.8c-3.1,4.9-3.1,4.7,2.2,7.6c3.5,2,7.8,2.7,10.3,6.4c-1.6,5.3-4.3,10.1-7.4,14.6
			c-4.9,0.8-8.3-2.7-12.2-4.5c-7.4-3.3-6.1-4-10.6,3c-7.6,11.8-15,23.7-23,35.3c-2.8,4.1-2.6,7.3-0.1,11.2
			c13,21.2,25.4,42.6,38.2,63.9c11.3,19,22.5,38,33.8,57c1,1.7,2.4,3.4,1.9,5.7c-4,3.8-8.2,7.4-13.6,9.4c-2.6-1.1-3.5-3.7-4.8-5.8
			c-22.4-37.4-44.6-75-66.9-112.5c-3.2-5.4-3.2-5.4-6.6-0.4c-7.1,10.5-13.6,21.3-20.8,31.7c-1,1.4-1.3,3.7-3.8,3.5
			c-4.5-2.8-9.1-5.7-13.6-8.5c9.9-15.4,19.6-30.8,29.7-46c2.1-3.2,2-5.3,0.1-8.6C119.7,229.5,109.3,211.7,98.8,193.9z"/>
		<path class="st4" d="M403.6,209.4c-3.8,3.8-7.7,7.6-11.5,11.5c-2.5,0.3-3.6-1.6-5-3c-30.7-30.6-61.3-61.2-91.9-91.9
			c-1.4-1.4-3.4-2.6-3-5c3.8-3.8,7.6-7.6,11.5-11.5C337,142.7,370.3,176.1,403.6,209.4z"/>
		<path class="st4" d="M393,291.3c3.9,3.8,7.7,7.6,11.6,11.5c-32.7,34.3-65.5,68.6-98.2,102.9c-3.6-4.3-7.3-8.6-10.9-12.9
			c-0.1-1.6,0.9-2.6,1.9-3.5c6.7-6.2,12.2-13.4,18.7-19.8c18.8-18.8,36.7-38.4,55.2-57.4c5.6-5.8,11-11.7,16.7-17.4
			C389.4,293.2,390.6,291.3,393,291.3z"/>
		<path class="st4" d="M205.9,410.1c-2.2,5.1-3,10.7-6.1,15.5c-25.4-12.7-50.7-25.4-76.1-38.2c2.8-4.7,5.6-9.4,7.3-14.6
			c2-1.1,3.6,0.1,5.3,0.9c22.1,11.1,44.4,21.8,66.1,33.6C203.7,408,205.2,408.5,205.9,410.1z"/>
		<path class="st4" d="M133.9,128.3c-3.3-4.6-4.4-10.1-6-15.4c23.5-8.5,47-17,70.4-25.5c0.8-0.3,1.6-0.5,2.5-0.7
			c1.8,5.2,3.6,10.3,5.3,15.5c-1.5,2.5-4.2,2.9-6.5,3.7c-19.6,7.1-39.2,14.5-58.8,21.5C138.6,128.1,136.4,129.5,133.9,128.3z"/>
		<path class="st4" d="M249.2,380c0-30.7-0.1-61.4-0.1-92.1c5.5-1.3,11-1.3,16.5,0c0,30.7-0.1,61.4-0.1,92.1
			C260.1,378.6,254.7,378.6,249.2,380z"/>
		<path class="st4" d="M380.7,255.7c-22.6-3.1-45.1-6.2-67.7-9.2c-1.4-5.7-0.1-11.1,2.1-16.3c22.6,3.1,45.2,6.2,67.8,9.3
			C382.1,244.9,380.7,250.2,380.7,255.7z"/>
		<path class="st5" d="M315.1,230.2c0.1,5.5-1.1,10.9-2.1,16.3c-6.9,20.7-20.4,34.7-41.9,40.3c-1.8,0.5-3.7,0.7-5.5,1.1
			c-5.5,1-11,1-16.5,0c-33.3-4.5-58-38.6-46.5-75.2c1.8-5.2,4.4-9.9,7.3-14.6c11.2-15.1,25.9-23.9,44.8-24.6
			C287.8,172.2,312.8,195.9,315.1,230.2z"/>
	</g>
</g>
</svg>
