<?xml version="1.0" encoding="utf-8"?>
<!-- Generator: Adobe Illustrator 27.8.1, SVG Export Plug-In . SVG Version: 6.00 Build 0)  -->
<svg version="1.1" id="Layer_1" xmlns="http://www.w3.org/2000/svg" xmlns:xlink="http://www.w3.org/1999/xlink" x="0px" y="0px"
	 viewBox="0 0 512 512" style="enable-background:new 0 0 512 512;" xml:space="preserve">
<style type="text/css">
	.st0{clip-path:url(#SVGID_00000065042346592459848720000008759124868305108136_);fill:#FF9C3A;}
	.st1{clip-path:url(#SVGID_00000065042346592459848720000008759124868305108136_);}
	.st2{fill:#FF9C3A;}
</style>
<g id="Layer_2_00000145034908288403586240000001192572666119948675_">
</g>
<g>
	<defs>
		<path id="SVGID_1_" d="M168.6,260.7c2.2-6.2,7-10.3,11.9-14.2c5.2-4.2,12.1-3.2,17.3,1.8c9.3,9.2,18.5,18.5,27.8,27.8
			c0.7,0.8,1.4,1.7,2.3,2.9c1.3-1.2,2.2-2.2,3.2-3.1c26.4-26.4,52.7-52.7,79-79c7.5-7.5,14.5-7.6,22.1,0c1.6,1.6,3.2,3.2,4.7,4.7
			c4.9,5.4,4.9,12.9-0.1,18.2c-0.6,0.7-1.2,1.2-1.9,1.9c-32.8,32.8-65.7,65.7-98.5,98.5c-6.2,6.2-10.2,6.2-16.5-0.1
			c-14.9-14.9-29.9-29.9-44.8-45c-2.6-2.7-4.4-6.1-6.6-9.1C168.6,264.2,168.6,262.4,168.6,260.7z"/>
	</defs>
	<use xlink:href="#SVGID_1_"  style="overflow:visible;fill:#FF9C3A;"/>
	<clipPath id="SVGID_00000101071945061308277780000012776929928261286045_">
		<use xlink:href="#SVGID_1_"  style="overflow:visible;"/>
	</clipPath>
	<path style="clip-path:url(#SVGID_00000101071945061308277780000012776929928261286045_);fill:#FF9C3A;" d="M439.8,229
		c-13.9-11.4-17.4-23.9-11-40.8c2.5-6.6,3.2-13.3,1.7-20.2c-3.3-15.2-14.3-25.5-29.6-28c-17-2.7-26.9-12.3-29.6-28.9
		c-4.1-24.3-25.9-37-48.9-28.5c-16.1,6-29.1,2.4-39.8-10.9c-14.8-18.2-41.1-18.4-55.9-0.2c-11.2,13.8-23.8,17.2-40.5,11
		c-22.2-8.2-44.5,4.6-48.4,28c-2.8,17.1-12.4,26.6-29.4,29.4c-23.5,3.9-36.3,26-28.1,48.3c6.1,16.7,2.8,29.3-10.9,40.5
		c-18.3,15-18.1,41.4,0.4,56.2c2,1.6,4.1,3.3,5.7,5.2c8.2,10,10,21.1,5.5,33c-2.7,6.8-3.9,13.7-2.7,20.9
		c2.6,15.4,14.3,26.7,29.9,29.2c17.1,2.7,26.9,12.2,29.7,28.8c4.2,24.6,26.5,37.4,49.6,28.4c14.7-5.7,28.6-2,38.5,10.4
		c15.6,19.4,41.6,19.5,57.1,0.2c10.1-12.5,23.8-16.2,38.9-10.5c4.6,1.7,9.5,2.4,14.2,3.6c17.7-0.8,32.1-13.1,35-30.6
		c3-17.9,12.3-27.3,29.7-30.1C424,369.6,437,347,428.6,325c-6.1-16.3-2.7-29.4,10.7-40.2C457.8,270,458,243.8,439.8,229z
		 M426.3,282.8c-12.4,10-15.7,22.2-10,37.3c7.8,20.4-4.3,41.3-25.9,44.9c-16.2,2.7-24.8,11.4-27.5,28c-2.7,16.3-16,27.7-32.5,28.4
		c-4.4-1.1-9-1.8-13.1-3.4c-14-5.1-26.7-1.8-36.1,9.8c-14.5,17.9-38.6,17.9-53.1-0.2c-9.2-11.4-22.1-14.9-35.7-9.6
		c-21.6,8.4-42.2-3.4-46.1-26.4c-2.6-15.3-11.7-24.1-27.5-26.7c-14.4-2.3-25.3-12.9-27.7-27.1c-1.1-6.6,0.1-13,2.5-19.4
		c4.2-11.1,2.6-21.5-5.1-30.7c-1.5-1.8-3.4-3.4-5.3-4.9C66,269,65.8,244.5,82.8,230.6c12.7-10.4,15.8-22.1,10.1-37.6
		c-7.6-20.7,4.3-41.1,26-44.8c15.8-2.7,24.6-11.4,27.3-27.4c3.6-21.6,24.2-33.6,44.9-26c15.5,5.7,27.2,2.6,37.6-10.2
		c13.8-16.8,38.2-16.8,51.8,0.2c10,12.4,22,15.6,36.9,10.1c21.4-7.9,41.6,3.9,45.4,26.5c2.6,15.3,11.7,24.2,27.5,26.8
		c14.2,2.3,24.4,11.9,27.5,26c1.4,6.4,0.7,12.6-1.6,18.7c-5.9,15.7-2.7,27.2,10.2,37.8C443.4,244.8,443.3,269.1,426.3,282.8z"/>
	<g style="clip-path:url(#SVGID_00000101071945061308277780000012776929928261286045_);">
		<path class="st2" d="M254.7,103.8c-84.9,0-153.9,68.9-153.9,153.9s68.9,153.9,153.9,153.9s153.9-68.9,153.9-153.9
			S339.6,103.8,254.7,103.8z M254.7,393.3c-74.9,0-135.6-60.7-135.6-135.6s60.7-135.6,135.6-135.6s135.6,60.7,135.6,135.6
			S329.6,393.3,254.7,393.3z"/>
	</g>
</g>
<path class="st2" d="M260.3,15.1c9.5,2.1,17.2,7.7,24.9,13.2c10.2,7.3,20.6,14.3,30.6,21.6c3.8,2.8,7.7,3.9,12.3,3.9
	c15.1,0,30.1,0.2,45.2,0.5c20.2,0.4,32.1,9.1,38.7,28.1c4.9,14.3,9.9,28.6,14.7,43c1.4,4.2,3.6,7.4,7.3,10.1
	c12.8,9.3,25.4,18.9,38,28.4c14.1,10.7,19,25.5,13.9,42.4c-4.7,15.4-9.7,30.7-14.1,46.2c-1,3.4-1,7.5,0,10.9
	c4.4,15.5,9.4,30.8,14.1,46.2c5,16.6,0.2,31.6-13.6,42.1c-13.1,9.9-26.4,19.7-39.4,29.7c-2.3,1.8-4.4,4.6-5.4,7.4
	c-5.4,15-10.5,30.1-15.7,45.2c-6.3,18.2-18.3,27.1-37.6,27.6c-15.8,0.4-31.7,0.3-47.5,0.8c-3.2,0.1-6.9,1.3-9.6,3.1
	c-13.5,9.1-26.7,18.6-40.1,27.9c-14.6,10.1-30.2,10.1-44.7,0c-12.9-9-25.8-17.8-38.4-27c-4.1-3-8.2-4.2-13.2-4.2
	c-14.9,0-29.8-0.2-44.7-0.5c-20.2-0.4-32.2-9.1-38.7-28.1c-5-14.3-10-28.6-14.7-43c-1.4-4.4-3.9-7.7-7.6-10.4
	c-12.2-8.8-24.1-18-36.2-27c-16.2-12.1-20.9-26.4-14.9-45.8c4.5-14.6,9.3-29.2,13.4-43.9c1-3.4,1-7.6,0-11
	c-4.4-15.5-9.4-30.8-14.1-46.2c-5.1-16.9-0.2-31.7,13.9-42.4c13-9.8,26.2-19.4,39-29.4c2.4-1.9,4.5-4.9,5.6-7.8
	c5.4-15,10.5-30.1,15.7-45.2c6.1-17.7,18.1-26.7,36.9-27.2c16-0.4,32-0.3,48-0.8c3.4-0.1,7.2-1.4,10-3.3
	c10.8-7.2,21.4-14.7,31.9-22.3c7.6-5.4,15.1-10.9,24.5-13C252.6,15.1,256.4,15.1,260.3,15.1z M457.8,193.4c-1.3-1.5-2.6-3.9-4.5-5.4
	c-13.3-10.2-26.8-20.2-40.2-30.2c-6.7-5-11.3-11.3-14-19.2c-5.2-15.4-10.6-30.8-15.9-46.1c-2.4-6.8-3.4-7.6-10.6-7.7
	c-16-0.2-32-0.5-48-0.6c-9-0.1-17-2.7-24.4-8c-13-9.3-26.1-18.4-39.2-27.6c-6-4.2-6.9-4.2-13.1,0.1c-13,9.1-26,18.1-38.8,27.3
	c-7.5,5.4-15.6,8.1-24.8,8.1c-16.2,0.1-32.3,0.5-48.5,0.6c-5.2,0-8.1,2-9.7,7c-5.2,15.8-10.7,31.4-16.1,47.1
	c-2.6,7.7-7.1,14-13.7,18.9c-13.3,9.9-26.5,20-39.9,29.8c-4.3,3.1-5.3,6.4-3.7,11.4c4.9,15.2,9.3,30.5,14.2,45.7
	c2.9,9.1,2.9,17.9,0,27c-4.9,15.3-9.5,30.8-14.3,46.1c-1.4,4.5-0.6,7.8,3.4,10.7c13.4,9.8,26.6,19.9,40,29.8
	c6.8,5.1,11.5,11.5,14.2,19.6c5.2,15.4,10.6,30.8,15.9,46.1c2.3,6.5,3.4,7.4,10.2,7.5c16,0.2,32,0.5,48,0.6
	c9.2,0.1,17.3,2.7,24.8,8.1c12.8,9.2,25.9,18.2,38.8,27.3c6.2,4.4,7.1,4.4,13.5-0.1c12.8-9,25.8-17.9,38.4-27
	c7.7-5.6,16.2-8.3,25.7-8.3c15.8-0.1,31.7-0.5,47.5-0.5c5.3,0,8.4-2,10.1-7.3c5-15.5,10.6-30.7,15.7-46.2c2.8-8.4,7.7-15,14.9-20.3
	c13.1-9.7,26-19.6,39.2-29.2c4.1-3,5.1-6.3,3.6-11c-5.1-16-9.8-32-14.8-48c-2.4-7.6-2.4-15.2,0-22.8c4.9-15.8,9.7-31.7,14.6-47.5
	C456.7,197.6,457.1,196.1,457.8,193.4z"/>
<path class="st2" d="M403.3,258.2c-0.1,82-66.9,148.5-148.9,148.4c-82.1-0.1-148.8-66.8-148.7-148.6c0.2-82,66.8-148.5,148.9-148.4
	C336.8,109.7,403.4,176.3,403.3,258.2z M254.5,140c-65.5,0-118.5,53-118.4,118.3c0.1,65,52.9,117.8,117.9,117.9
	c65.8,0.1,118.8-52.7,118.8-118.3C373,192.9,319.8,139.9,254.5,140z"/>
</svg>
