<?xml version="1.0" encoding="utf-8"?>
<!-- Generator: Adobe Illustrator 27.8.1, SVG Export Plug-In . SVG Version: 6.00 Build 0)  -->
<svg version="1.1" id="Layer_1" xmlns="http://www.w3.org/2000/svg" xmlns:xlink="http://www.w3.org/1999/xlink" x="0px" y="0px"
	 viewBox="0 0 512 512" style="enable-background:new 0 0 512 512;" xml:space="preserve">
<style type="text/css">
	.st0{fill:#E21505;}
</style>
<g id="Layer_2_00000116193963633454184940000008691064794172304772_">
</g>
<path class="st0" d="M497,225.1c-5-37.4-18.5-71.7-39.7-102.9c-2.1-3.1-2.5-5.4-0.6-9c8.4-15.4,5.4-35.3-6.9-47.8
	c-12.1-12.4-31.7-16-47.2-8c-4.6,2.4-7.6,1.7-11.5-0.9c-27.3-18.4-57.2-30.7-89.6-37c-9.3-1.8-18.7-2-28.1-3c-0.6,0-1.3,0-1.9,0
	c-0.2,1.2-1.1,0.9-1.9,0.8c-0.6,0-1.3,0-1.9,0c-0.6,0-1.3,0-1.9,0c-0.8,0.1-1.5,0.1-2-0.8c-5.7,0-11.4,0-17.1,0
	c-0.4,0.9-1.1,0.9-2,0.8c-0.6,0-1.3,0-1.9,0c-0.6,0-1.3,0-1.9,0c-0.8,0.1-1.6,0.4-1.9-0.8c-1.3,0-2.5,0-3.8,0c-4.8,2-10,1.9-15,2.6
	c-37.7,5.4-72,19.1-103.2,40.6c-5.7,4-7.2,9.3-3.9,14.1c3.3,4.8,8.8,5.5,14.5,1.5c25.5-17.6,53.4-29.5,83.8-35.6
	c1.5-0.3,3.1-0.5,4.7-0.8c0.3,1.9-1.1,2.7-1.8,3.8c-13.7,20-21.7,42.6-28.2,65.7c-2.7,9.7-5.1,19.5-6.8,29.5
	c-0.5,2.6-1.5,3.9-4.4,4.4c-15.6,2.8-26,11.9-31.4,26.8c-0.7,1.8-1.1,2.9-3.4,2.9c-30-0.1-60-0.1-90-0.2c-0.1,0-0.2-0.2-0.5-0.5
	c4.4-10.7,9.9-20.9,16-30.8c1.3-2,2.6-3.9,3.8-6c2.8-5,1.7-10.5-2.8-13.3c-4.5-2.8-9.9-1.6-13.2,3.2c-6.9,10.2-12.9,20.9-18.1,32.1
	c-11.9,25.4-19,52-21.7,79.9c-0.1,1,0.5,2.3-1,2.8c0,1.9,0,3.8,0,5.7c1,0.3,0.9,1.1,0.8,1.8c0,0,0,0,0,0c0,0,0,0,0,0
	c0.2,0.8,0.1,1.6-0.8,1.9c0,5.1,0,10.1,0,15.2c1.4,1.9,1.5,3.8,0,5.7c0,0.9,0,1.9,0,2.8c1.2,0.6,1.4,1.3,0,1.9c0,1.6,0,3.2,0,4.7
	c1.1,4.9,0.6,10,1.3,14.9c5,36.8,18.3,70.4,39,101.2c2.5,3.7,3,6.5,0.8,10.7c-8,15.5-4.7,35,7.6,47.3c12.3,12.3,31.9,15.6,47.3,7.5
	c4.2-2.2,7.1-1.7,10.7,0.8c13.2,9,27.2,16.7,42,22.7c25,10.2,50.8,17.1,78.1,17.6c18,0.4,35.9,0.9,53.8-1.8
	c26.5-4,51.6-12.3,75.3-24.7c24.5-12.9,46.1-29.6,65.1-49.9c22.9-24.5,40.2-52.2,51.3-83.8c7.6-21.4,12.7-43.2,13.3-66.1
	C498.7,258.7,499.3,241.8,497,225.1z M420.6,73.4c11.4,0.1,20.7,9.5,20.7,20.9c0,11.4-9.4,20.8-20.8,20.8c-11.6,0-21-9.5-20.9-21.1
	C399.7,82.6,409.2,73.3,420.6,73.4z M344.5,53.8c13,5.7,25.4,12.6,37.2,20.6c2.3,1.6,2.8,2.8,1.8,5.6c-5.8,15.9-2.9,30.4,9,42.3
	c11.9,11.9,26.4,14.7,42.3,9c1.5-0.5,2.9-2.1,4.5,0.2c8.6,12.6,16.2,25.8,22.3,40.5c-1.9,0-3.3,0-4.6,0c-38.4,0-76.8,0-115.1,0.1
	c-3.4,0-4.7-0.7-5.2-4.4c-3.8-28.2-9.7-55.9-19.3-82.7c-2.9-8-6.1-15.9-9.8-23.5c-3.7-7.6-8.1-14.9-13.7-22.7
	C312.1,41.8,328.6,46.9,344.5,53.8z M329.2,316c11.4,0.2,20.5,9.5,20.4,21.1c-0.1,11.5-9.4,20.7-20.9,20.6
	c-11.3-0.1-20.8-9.5-20.8-20.9C307.9,325.3,317.6,315.8,329.2,316z M291.3,324.1c-0.8,2.4-1.7,3.4-4.5,3.4
	c-30.8-0.1-61.6-0.1-92.4,0c-3.2,0-3.9-1.1-4.2-4c-2.9-33.2-3.8-66.5-2-99.8c0.1-2.3,0.8-3.1,3.1-3.7c13.9-3.8,23.5-12.6,28.1-26.3
	c0.9-2.7,2.2-2.9,4.5-2.8c15.5,0.1,31,0,46.4,0s31,0.1,46.4-0.1c3.2,0,3.9,1.1,4.2,3.9c2.9,33.1,3.8,66.2,2,99.4
	c-0.1,2.4-0.5,3.4-3.2,4.1C305.7,301.8,296.1,310.4,291.3,324.1z M197.8,142.3c5.8-27.3,12.6-54.3,26.2-79c4.4-8,9.6-15.6,16.7-21.5
	c10.3-8.5,19.5-8.5,29.7,0.2c9.7,8.3,15.8,19.2,21.1,30.5c12.1,25.7,18.6,53.1,23.6,80.9c1.1,6,1.9,12.1,2.9,18.3
	c-1.1,0.1-2.1,0.2-3,0.2c-30.5,0-60.9,0-91.4,0.1c-2.7,0-3.7-0.8-4.6-3.4c-3.3-9.8-9.6-17.3-18.7-22.2
	C198.6,145.5,197.3,144.8,197.8,142.3z M181.6,160.6c11.6,0,21,9.6,20.8,21.2c-0.2,11.4-9.7,20.6-21.1,20.5
	c-11.4-0.1-20.7-9.5-20.6-21C160.8,169.9,170.2,160.6,181.6,160.6z M41.2,323.6c-12.6-43.1-12.5-86.2,0.1-129.3
	c0.8-2.7,2-3.5,4.9-3.5c31,0.1,61.9,0.1,92.9,0c2.7,0,4,0.6,5,3.5c3.7,11,11.1,19,21.8,23.5c2.8,1.2,3.7,2.6,3.5,5.5
	c-1.3,23.2-1.4,46.4-0.1,69.6c0.6,9.9,1.1,19.9,2.1,29.8c0.5,4.3-1,4.7-4.7,4.7c-19.9-0.2-39.8-0.1-59.7-0.1
	c-20.2,0-40.4-0.1-60.7,0.1C43.3,327.5,42.1,326.6,41.2,323.6z M90.4,444.9c-11.4-0.1-20.7-9.5-20.6-20.9c0-11.4,9.4-20.7,20.8-20.7
	c11.6,0,21,9.5,20.9,21.2C111.3,435.7,101.8,445,90.4,444.9z M172.7,467c-15.3-6.1-29.6-13.9-43.3-23.1c-2.3-1.6-2.9-2.8-1.8-5.6
	c5.9-15.9,2.9-30.4-9-42.3c-11.9-11.9-26.4-14.7-42.3-9.1c-1.5,0.5-2.9,2.2-4.5-0.1c-8.6-12.6-16.2-25.8-22.3-40.5
	c1.9,0,3.3,0,4.6,0c38.4,0,76.8,0,115.1-0.1c3.3,0,4.8,0.6,5.3,4.3c3.8,28.2,9.7,55.9,19.3,82.7c2.9,8,6.1,15.9,9.8,23.5
	c3.7,7.6,8.1,14.9,13.8,22.7C201.2,476.8,186.8,472.6,172.7,467z M270.3,476.4c-10.3,8.6-19.5,8.6-29.7-0.2
	c-9.7-8.3-15.8-19.2-21.1-30.5c-12.1-25.7-18.6-53.1-23.6-80.9c-0.9-5-1.3-10-2.4-14.9c-0.7-3.1,0.1-3.7,3.1-3.6
	c15.2,0.1,30.3,0.1,45.5,0.1c14.7,0,29.4,0.1,44.1-0.1c2.9,0,4.3,0.6,5.3,3.6c3.3,10,9.9,17.4,19.3,22.3c1.8,0.9,3.1,1.7,2.5,4.2
	c-5.8,27.2-12.6,54-26.2,78.6C282.6,462.9,277.4,470.5,270.3,476.4z M373.1,449.3c-24.3,15.2-50.7,25.3-79.8,30.1
	c9.1-11.4,15-23.5,20.1-36c8.3-20.2,13.9-41.1,18-62.5c0.6-2.9,1.4-4.5,4.8-5.1c15-2.9,25-11.9,30.3-26.1c0.6-1.7,0.8-3.4,3.5-3.4
	c30.3,0.1,60.6,0.1,91.6,0.1C442.3,390.2,413,424.4,373.1,449.3z M469.7,323.8c-0.8,2.6-1.8,3.7-4.7,3.7c-31.3-0.1-62.5-0.1-93.8,0
	c-2.9,0-3.9-1-4.8-3.6c-3.7-10.8-10.9-18.7-21.4-23.3c-2.7-1.2-3.3-2.6-3.2-5.3c1.7-29,1.2-58.1-0.9-87.1c-0.3-4.4-0.4-8.9-1.1-13.2
	c-0.7-4,0.9-4.2,4.2-4.2c20.1,0.1,40.1,0.1,60.2,0.1c20.2,0,40.4,0.1,60.6-0.1c3,0,4.3,0.7,5.2,3.8
	C482.4,237.7,482.3,280.7,469.7,323.8z"/>
</svg>
