<?xml version="1.0" encoding="utf-8"?>
<!-- Generator: Adobe Illustrator 27.8.1, SVG Export Plug-In . SVG Version: 6.00 Build 0)  -->
<svg version="1.1" xmlns="http://www.w3.org/2000/svg" xmlns:xlink="http://www.w3.org/1999/xlink" x="0px" y="0px"
	 viewBox="0 0 512 512" style="enable-background:new 0 0 512 512;" xml:space="preserve">
<style type="text/css">
	.st0{fill:#1A97D6;}
</style>
<g id="Layer_2">
</g>
<g id="Layer_1">
	<g>
		<path class="st0" d="M260.9,19c4.4,3.3,9.2,6.2,13.3,9.9c34.5,31.6,75,50.3,121.3,56.3c13.7,1.8,27.5,2.3,41.3,3
			c13.8,0.7,19.8,6.5,19.9,20.2c0.3,31.1,1,62.2,0.7,93.2c-0.4,37.5-4,74.7-13.7,111.1c-19.8,74.1-64.8,127.9-133,162.2
			c-15.1,7.6-30.9,13.6-46.6,19.8c-3.7,1.5-8.8,1.8-12.6,0.5c-35.5-12.2-68.7-28.7-98-52.4c-40.1-32.4-66.3-73.8-80.9-122.9
			c-9.3-31.3-14.1-63.4-14.8-95.9c-0.9-39.4-0.3-78.9-0.2-118.4c0-10.4,6.9-16.7,18-17.3c11.9-0.7,23.9-0.9,35.8-2.1
			c48.9-5.2,91.9-23.7,128.4-57c4.2-3.8,9.1-6.8,13.6-10.2C255.9,19,258.4,19,260.9,19z M91,122.1c-0.1,1.5-0.2,3-0.2,4.6
			c-0.3,20.2-0.7,40.4-0.7,60.6c-0.1,35.2,1.9,70.1,9.4,104.6c9.1,41.6,26.9,78.5,57.1,109c28,28.2,62,46.8,99,60.4
			c1.2,0.5,3.1,0.2,4.4-0.4c17.4-8.1,35.4-15.3,52-24.8c36.3-20.8,64.4-49.8,83.3-87.5c18.3-36.7,25.8-76.1,27.6-116.5
			c1.6-35.2,0.6-70.5,0.7-105.8c0-1.5-0.2-3-0.3-4.5c-12-1.4-23.8-2.4-35.4-4c-47.3-6.5-89.4-24.9-126-55.7c-3.5-3-5.5-3.1-9.1-0.1
			c-33.7,28.5-72.4,46.5-115.9,54.1C121.8,118.7,106.6,120.1,91,122.1z"/>
		<path class="st0" d="M223,291.1c39.4-39.4,78.2-78.2,117-117.1c5.2-5.2,10.8-9.3,18.5-9.7c10.4-0.4,18.5,3.7,23.4,12.9
			c4.9,9.2,4.1,18.2-2.1,26.6c-1.8,2.4-3.9,4.5-6.1,6.6c-43.1,43.1-86.1,86.2-129.2,129.2c-15.4,15.4-27.9,15.4-43.4-0.1
			c-21.2-21.2-42.4-42.4-63.6-63.6c-7.1-7.1-9.8-15.6-7-25.3c2.7-9.5,9.2-15.3,18.8-17.4c9.4-2.1,17.2,1.4,23.8,8
			c14.8,14.9,29.7,29.7,44.6,44.5C219.1,287.6,220.8,289.1,223,291.1z"/>
	</g>
</g>
</svg>
