<?xml version="1.0" encoding="utf-8"?>
<!-- Generator: Adobe Illustrator 27.8.1, SVG Export Plug-In . SVG Version: 6.00 Build 0)  -->
<svg version="1.1" id="Layer_1" xmlns="http://www.w3.org/2000/svg" xmlns:xlink="http://www.w3.org/1999/xlink" x="0px" y="0px"
	 viewBox="0 0 512 512" style="enable-background:new 0 0 512 512;" xml:space="preserve">
<style type="text/css">
	.st0{fill:#2195F2;}
</style>
<g id="Layer_2_00000139977165724393734040000017407981526292364712_">
</g>
<path class="st0" d="M270.5,74.6c76.8,1.1,155.5,33.2,221,97.3c11.3,11.1,14.6,24.4,9.1,39.1c-5.4,14.7-16.5,22.9-32.2,24.3
	c-11.7,1-21.4-3.7-29.6-12c-21.4-21.4-45.9-38.5-73.3-51.3c-97.9-45.7-215.7-25.6-292.2,50.7c-22.6,22.5-55.2,12.3-63.3-13
	c-4.7-14.6-0.9-27.4,9.9-38.1c27.4-27.3,58.6-49.3,93.6-65.6C158.7,84.9,206.1,74.6,270.5,74.6z"/>
<path class="st0" d="M254.9,213.3c54.2,1.1,99.9,19.3,138.1,56c15.6,15,16.3,37.5,1.7,52.7c-14.5,15.1-37.3,15.6-52.7,0.3
	c-44.1-43.6-113.8-47-161.9-8.9c-4.2,3.4-8.1,7.2-12.2,10.8c-15.4,13.7-37.6,12.8-51.6-2.1c-13.9-14.7-13.6-36.8,1-51.2
	c34-33.5,74.7-52.5,122.3-56.6C245.1,213.8,250.7,213.6,254.9,213.3z"/>
<path class="st0" d="M255.4,466.3c-31.7-0.6-57.1-26.6-56.6-57.9c0.5-32.2,26.8-57.3,59.4-56.5c30.9,0.7,56.1,27.4,55.3,58.6
	C312.7,441.7,286.5,466.9,255.4,466.3z"/>
</svg>
